/* XPM */
static char *result[] = {
/* columns rows colors chars-per-pixel */
"64 64 249 2 ",
"   c #020202",
".  c #090704",
"X  c #010D01",
"o  c #0A040A",
"O  c #0A0A0A",
"+  c #0E0A0B",
"@  c #021401",
"#  c #031B01",
"$  c #0C130C",
"%  c #0A1A08",
"&  c #151709",
"*  c #160415",
"=  c #110C11",
"-  c #071415",
";  c #141414",
":  c #151C15",
">  c #191818",
",  c #1B1B1B",
"<  c #271905",
"1  c #231A19",
"2  c #042401",
"3  c #0D2607",
"4  c #042B01",
"5  c #162C09",
"6  c #043401",
"7  c #053B01",
"8  c #0A3804",
"9  c #133506",
"0  c #082219",
"q  c #1D231D",
"w  c #192818",
"e  c #1E361D",
"r  c #372407",
"t  c #333409",
"y  c #22221E",
"u  c #2B251C",
"i  c #33281D",
"p  c #1B1E20",
"a  c #241D22",
"s  c #321F30",
"d  c #1D2423",
"f  c #122F3A",
"g  c #222222",
"h  c #282926",
"j  c #2C2C2C",
"k  c #302E2F",
"l  c #2A362A",
"z  c #37332C",
"x  c #343434",
"c  c #373A37",
"v  c #3B3C3B",
"b  c #442A04",
"n  c #4D350F",
"m  c #583603",
"M  c #683B02",
"N  c #643E16",
"B  c #443829",
"V  c #433838",
"C  c #054501",
"Z  c #0A4502",
"A  c #054B00",
"S  c #094A02",
"D  c #06470A",
"F  c #144804",
"G  c #065400",
"H  c #0B5402",
"J  c #065A00",
"K  c #0B5A01",
"L  c #0A5709",
"P  c #135508",
"I  c #124611",
"U  c #2E4D0A",
"Y  c #056602",
"T  c #096401",
"R  c #0A6B01",
"E  c #126908",
"W  c #027404",
"Q  c #097300",
"!  c #0B7D01",
"~  c #147907",
"^  c #1A7514",
"/  c #326F0B",
"(  c #2B422A",
")  c #384538",
"_  c #2E5035",
"`  c #346839",
"'  c #6E4C0D",
"]  c #774802",
"[  c #546B11",
"{  c #464E2D",
"}  c #4A423B",
"|  c #564438",
" . c #6E4E34",
".. c #795537",
"X. c #293744",
"o. c #3E5F41",
"O. c #08517A",
"+. c #484848",
"@. c #554F48",
"#. c #475846",
"$. c #565654",
"%. c #675549",
"&. c #516A50",
"*. c #62675E",
"=. c #676968",
"-. c #71756F",
";. c #A3180C",
":. c #CF1C08",
">. c #865007",
",. c #885304",
"<. c #935A02",
"1. c #975B04",
"2. c #A05F00",
"3. c #9A6305",
"4. c #A76503",
"5. c #A86B0A",
"6. c #B26C04",
"7. c #BC7303",
"8. c #855A37",
"9. c #9E662D",
"0. c #976437",
"q. c #A46C38",
"w. c #B0733A",
"e. c #C97A05",
"r. c #CC7D0E",
"t. c #C6632A",
"y. c #946D50",
"u. c #AD7746",
"i. c #0A8300",
"p. c #0B8C01",
"a. c #008709",
"s. c #148607",
"d. c #0B9300",
"f. c #0C9C02",
"g. c #159704",
"h. c #139712",
"j. c #319006",
"k. c #0DA801",
"l. c #18AA05",
"z. c #0CBA00",
"x. c #15B007",
"c. c #29AD01",
"v. c #168A28",
"b. c #519406",
"n. c #53A615",
"m. c #63A51B",
"M. c #508F34",
"N. c #0ECC04",
"B. c #2CCE11",
"V. c #22E611",
"C. c #71C91F",
"Z. c #478942",
"A. c #748373",
"S. c #23DD43",
"D. c #77C54B",
"F. c #949108",
"G. c #A4A409",
"H. c #D98506",
"J. c #D5891C",
"K. c #ED8F01",
"L. c #D58B26",
"P. c #D58C2C",
"I. c #D58D33",
"U. c #D79032",
"Y. c #D89235",
"T. c #D9963D",
"R. c #E3AA21",
"E. c #87DC2E",
"W. c #D8D612",
"Q. c #DA9942",
"!. c #D79848",
"~. c #DC9E4C",
"^. c #D49751",
"/. c #DCA04E",
"(. c #DDA254",
"). c #DEA65A",
"_. c #DAA45E",
"`. c #E0A75A",
"'. c #DDAD6F",
"]. c #E1AC65",
"[. c #E1AE68",
"{. c #E3B16D",
"}. c #E4B373",
"|. c #E4B77B",
" X c #E5B97E",
".X c #8CCD70",
"XX c #98E76A",
"oX c #015882",
"OX c #2073A9",
"+X c #299DCF",
"@X c #359ECF",
"#X c #289FD3",
"$X c #1EA1D6",
"%X c #26A0D4",
"&X c #2BA1D5",
"*X c #2DA6D8",
"=X c #33A3D5",
"-X c #39A7D7",
";X c #35A8D5",
":X c #34A6D8",
">X c #3CAADA",
",X c #47A9D6",
"<X c #43ADDA",
"1X c #55ADD7",
"2X c #45B1DC",
"3X c #4CB2DC",
"4X c #56B1D7",
"5X c #53B4DD",
"6X c #5AB6DD",
"7X c #5CB9DF",
"8X c #66B7DA",
"9X c #73BDDC",
"0X c #5AB9E0",
"qX c #65BDE1",
"wX c #6ABEE1",
"eX c #71BEE2",
"rX c #6DC0E3",
"tX c #74C2E4",
"yX c #7BC5E5",
"uX c #7EC8E6",
"iX c #868789",
"pX c #E6BB82",
"aX c #E5BD89",
"sX c #B3EE90",
"dX c #E9C18C",
"fX c #E8C496",
"gX c #EBCDA5",
"hX c #EFD7B8",
"jX c #8BC4DE",
"kX c #82C9E6",
"lX c #89CAE5",
"zX c #8CCDE9",
"xX c #92CEE8",
"cX c #96D1EA",
"vX c #9AD3EB",
"bX c #A7D8ED",
"nX c #B3DDEF",
"mX c #B3DEF0",
"MX c #BBE1F1",
"NX c #F3DFC4",
"BX c #F5E6D4",
"VX c #C5E2EE",
"CX c #C6E6F4",
"ZX c #D6EDF7",
"AX c #EFF6EC",
"SX c #F4F7ED",
"DX c #E5F3F9",
"FX c #F6F9F7",
"GX c #FBFDFC",
/* pixels */
"i.i.Y C A C 7 G T T Q Q i.d.p.J A G T d.i.Q A G T i.i.Q J G S i.p.i.% . . . . .     . ; b n x.N.V.N.N.k.d.d.d.k.k.z.N.N.z.k.k.z.",
"Q i.Q K T J 7 S A A T Q d.k.f.T A A J i.d.i.J A J Q d.p.R G S Q i.i.9 $ . . + .   O = : b t g.l.f.i.G G A T i.d.d.p.! T R Q i.d.",
"Q T T K Q Y S A C # 4 3 e Y R j o   # J i.p.T C C Y p.p.Q G C J ! i.! G . . . < ; > > > < < t t ! Y A J Y Q d.d.i.Y R Y i.i.i.d.",
"d.T H C Q Q T Y K 6 2 O $ G R ) h % X 2 C C w 3 # 2 S K J 7 X @ e e T 4 . . = > 1 > $ o . & 1 y Q Q Q ! Q Q p.i.Q Q i.! i.i.Q R ",
"Q J 7 J J J Q d.f.i.T C 6 T i.k.f.i.L G T T ! Q T G Y Q L 7   2 R ! p.G & < b 1 d ; . . & 1 : & 7 H e e e 0 6 6 7 S K A 6 % 2 7 ",
"G G 7 T J J Y i.Q A 3 $ @ @ 6 Q d.f.R T G J i.i.Q P P E P I $ $ w e e 9 ; 1 n , O     < r r < < R i.! R H C G C H T G 8 @ = , g ",
"7 6 2 T T T Y Q Y T 8 $ # X # 7 H ( g & X @ q e C X             X 0 e               O , 1 , ; ; w 5 2 # @ X X = g h g , a k x v ",
"T A 6 G K Q i.! T C 6 = 6 2 3 3 3 k k h % % 8 Z 8 +.+.+.+.+.+.} o.M.Z.) +.+.v O   O ; 1 > q > a = o       . 3 l ( ) l l x c k k ",
"z.z.k.f.f.k.N.z.f.T C 9 Z G G 7 4 g k x A 7 3 G ` AXAXAXGXGXGXGXGXGXGXGXFXFXSXv o , p ; ; p p > O       = l v.l.h.h.~ E L P q h ",
"i.R A l H T i.x.N.z.k.k.f.k.b./ t 1 h @./ / 5 C &.AX.X.XGXGXGXGXGXGXGXFXFXSXFXV   u i h i u 1 =   O ; h v @.@.#.} ( S S 7 7 7 S ",
"Y G 6 > p 1 , e l ( T R Y / :.:.:.] ' 7.e.e.' >.u.SXXXAXGXsXSXsXFXXXFX.XD..XSX%.N >.3.1.,.] ] 1 d h x +.@.$.v.c h > ; 8 C S H G ",
"H 8 3 > a a > 1 * a E ~ W : ;.;.;.1.>.5.H.H.3.M y.SXXXsXGXFXsXSXGXXXGXSXD.SXFX%.M >.4.1.<.,.>.s v +.$.$.v j 3 ; > d p > , : q q ",
"6 % . X % @ - - - - G W W z ;.;.G.e.4.5.K.K.e.M u.FXsXAXGXsXSXsXSXXXGXGX.XFXFX..1.e.e.2.>.2.5.$.$.$.v x , ; * > a g q > > O o o ",
"U U B / / U i i z B } | @.%.:.t.R.L.r.r.R.Y.T.8.y.FXXXXXFXGXGXGXGXGXGXGXGXGXGXy.9.w.u.1.1.6.e.| x c d p = > > : q , > o         ",
"~.!.!./.).(.~.!._.(.(.^._.'.aXNXNXhXaX}.aXhXVXjX8XFXFXSXFXFXFXGXGXGXGXGXGXGXGXjX9XvXjXI.4.e.6.V p , > p p > : = o   X       X X ",
"~.~.~.).).)././.).).).~.)._._.pXaXaXaX}.}.aXDXZX6X,X1X1X1X,X,X,X5XqXwXeXwXeXbXZXvXwX9Xw.4.e.6.z - , g a d ; O . O $ 6 > a q C C ",
"Q.Q.Q.Q.Q././.Q.Y.I.P.P.P.P.U.~.].].)./.`.pXVXCXzX3X<X:X2X2X<X<X<XqXxXzX<X5XFXGXeX<X8Xq.4.H.r.V x c v k k p a > > > : : a g A S ",
"T.Q.T.Q.T.!.~.Q.T.Q.T.T.U.P.P.P.P.P.U.T.`.aXbXcXCXvXqX<X3X3X0X0XqXwXkXeXwXcXGXGX8X<X@X8.1.e.H.%.v x h p g g d > > > > > p q C C ",
"P.P.P.P.P.P.P.P.U.Q.Q.Q.Q.~./.!.T.Y.U.U.!.gXnXwXvXvXzXyX<XqXuX0X0XwXkXDXGXMXZXnX5X5X1Xw.6.e.e./ l a p > d p , > O O         X X ",
"U.Q.!.~.`.`.`.~.~.(.).`.).{.|.}.}.].}.|.|.fXbXzXbXDXFXDXyXtXzXqXwXeXMXGXFXeX>X,X<X<X1Xw.4.4.1.9 -   o                 o $ > a a ",
"~./././.`.`.`.~./.`.`.`././.`.`.).).}. XpXgXVXvXyXDXGXZXyXrXrX0XqXyXDXZXqX$X#X>X:X>X<X0.,.2.1.U C S z i u , , g g , 1 > > > a q ",
"~.~.~./.(.).(.~.~.`.`.(.~.~.`.`.).~.).).`.aXVXmXzXGXGXCXrXrX5X<X3XzXGXCX=X*X<X:X#X#X,X..M >.4.c.z.l.' ' ' m c v } x N n g , y a ",
"T.Y.P.P.P.I.I.P.U.P.P.P.P.I.I.P.P.P.U.I.P.'.lXzXzXFXGXcX7X3X=X-X3XuXCXbX<X>X:X<X<X#X,X..2.6.H.B.N.c.' ' v x c } ' v k j 1 r r , ",
"/.Q.~.!.Q.~.!.Q.!.~.Q.T.Q.!.!.Q.Q.~.]._.].pXyXrXtXZXFXkX7X2X<XqXuXwXwXcXtX-X#XqXqX#X,X8.2.2.6.{ a.! ) l d > a g a p > > : > , d ",
"!.Q.~.~.T.~.!.T.~.!.T.Q.Q.~.~.~.).).].].].'.1X3XrXvXcX3X5X<X<XqXeX3X>XtXwX0XqXtXtX&X@X .>.,.<.1 6 S L G 7 8 > = O     o $ > > , ",
"P.P.L.L.P.P.P.P.P.P.L.L.U.~.~.Q.Q.Y.P.I.P.^.1X3XrXbXcXrXcXuXwXwX>X#X#X#X*XeXmXmXtX&X-X..] M m & 4 C G H 6 7 : > a p > O o       ",
"Q.`.`.T.P.P.P.P.I.Y.Q.Q.Q.~.~.Y.P.U.T.~.~.pXlX8XvXFXMXtXvXzXtXzX0X*X#X#X&XeXCXCXyX#X,X8.2.>.] & X @ # 2 4 w 7 8 q d 1 > > > $ O ",
"}. X X}.`.~.`.}.}.].].[.].`._.~.~.~.~.~.~.aXlXyXCXGXZXyXzXmXkXlXwX#X#X#X*XeXmXvXwX-X,X0.e.e.4.U A G 7 C C 6 C H : a d : > > > , ",
"}.pXpX}.[.[.].}.{.`././.`.`.`.~.~././.~.).fXvXvXbXCXMXqXtXzXqX0X<X&X#X#X:XqXbXcXwX3X@X8.6.r.e.+.) ^ l I I : % @   o O $ ; > > > ",
"`.`.|.pX}.].`./.~.~.~.~.`.`.).`.].].].).(.'.kXzXkXtXuXqXzXtX5XeX3X&X%X&X>X<XzXbXwX3X@X..,.4.6.} v ) ) ) ) ) l h d p ; O     O = ",
"Q.Q././.Y.P.P.P.P.P.Y.~._.`.~.~././.).).(._.9XlX0X-X0XwXuXwX5XrX3X&X#X&X>X<XkXmXyX6X1X0.1.1.>.i j E ~ s.s.s.~ v c x h H p > $ O ",
"T.U.P.P.P.P.U.Q.~.~.~.`.`.`.(.~.~.~.).).Q.^.4XwX3X*X6XtXwX3X3X0X<X:X#X#X<X<X0XmXvX0X1Xq.1.<.<.F 7 6 6 C L T ~ x c c l ^ c k h > ",
"P.Y.T.).).).~.~./.~.~.`.`.].}.].!.P.P.P.J.^.wXyX3X#X3XeXqX<X3X3X<X>X#X&X3X3X>XvXbX0X1X0.<.1.<.i d > = @ @ @ % ; : , y h c c x l ",
"~.~.~.`.).`./.~.~.~.~.~.~.~.`.~.Q.P.P.P.J.^.9X0X#X#X3XwXwX5X3X3X3X3X&X&X3X<X-XmXZX0X@X| m ' ] i d : 8 H H C 4 % # @ # = q I H T ",
"~.~./.).).).Q.Q.Q.~.~.~.~.~.`.~.`.Q.T.P.J._.8X:X#X#X3XqXqX0X1X<X3X3X&X#X<X-X-XnXDXyX6X..M m m   o O > d q q > ; ; * o     . ; : ",
"~.Q.Y.Y.T.).).`.~.~.~.~.~.!.Q.!.`.~.T.P.L.^.8XqX5X*X-X<X<XwXeX3X3X<X:X:X<X*X=XbXVXwX8X0.<.<.>.b # # % , d d w w w w w e d w 3 % ",
"Q.~.~.~.~.).).)./.~.Q.Q.~.`.(.~.`.~.T.P.J._.9XyXwX<X3X0X6XbXnX6X<X<X<X3X3X#X-XbXCXlXeXw.<.1.3.W./ W T K H H T R R ! ! p.i.! Q T ",
"~.~./.~.~.).).~.Y.Y.Q./.`.`.`.~.T.U.P.P.P._.8XvXbXeX0X0XwXZXDX6X-X3X3XyXyX#X=XnXCXqX4Xq.4.3.<.F.U C H K C % # # 2 6 Z J A e w q ",
"~.~.~.T.Y.P.U.Y.T.~.~./.`.`./.T.P.I.Q.].}.aXxXCXZXkX0X5XqXCXVX-X#X3X3XkXzX>X=XmXCXqX8Xw.4.>.,.[ w > y d y > ; * o         o = ; ",
"U.P.P.P.U.~.(.`./.~.~.Q.Q./.`.].].}.}.pXpXhXnXDXDXkX:X#X-XvXvX=X#X>X<XwXkX,X=XvXMX6X1Xq.e.6.4.' : ; > 1 1 , > : p p : o       o ",
"L.P.Y.T./.`.`.`.`.`.`.`.].pXpXpX}.|.pXgXgXBXmXVXmX5X#X$X=XvXbX<X#X:X<XtXzX3X=XxXmX3X,X8.6.7.7.B d y = O o = > , g g , > : : : 2 ",
"Q.~./.`.{.aXdXpX[.].}.}.}.pXpXpXpXaXpX|.].aX9XeXeX0X-X#X=XvXmX6X$X#X<XtXkX3X#XxXmX0X#X .2.6.7./ W E C 7 6 2 # 4 8 q g : 8 G T i.",
"}.|.}.}.}.pXdXfXpX}.}.}.].].}.}.].(.[.}.[.|.9X>X0XqX3X#X#XlXbX5X#X#X0XcXzX,X#XxXCXeX#XV ] 1.6.c.k.f.d.i.Q T C 4 # # 3 7 G T Q d.",
"fXfXdXpX}. XdXdX}.`././././.`._.`.`.].`.!._.6X3XtXeX3X#X:XcXMX6X%X#X3XcXbX0X:XxXZXlX@XV M >.<./ ( l K K T F K C 7 # # 2 6 7 J i.",
"pX}.}.[.`.`.`.`./.!.Q.~.~.~.).`.]._.].^.Y.^.1X3XwX0X<X:X=XkXbX5X%X%X>XtXzX0X:XxXCXtX+X| m M ] F h k Y J J C G K H 8 3 # 2 6 C J ",
"~.~.(.~.Q.Q.T.`.).).~.~.~.Q.~./.].`.~.I.L.!.1X3XqX0X3X3X#X<X3X<X:X%X0XcXxX<X#XkXbX8X=X| m m m 5 > d ~ g.c.b.P C w w : & $ X X @ ",
"Y.!.~.~.~.~.~.`.`.).].`.).!.`.`.].~.Q.P.r.!.8XkXzXwX3X3X#X<X<X3X3X&X3XvXvX0X#XkXbXtX2X| m m m & : i ' G.W.W.( C 8 6 C S C 4 # X ",
"~.~.~.~.~.~.~.).].].].].].`.`.`.~.U.P.P.J.!.8XvXvXwX<X<X#X3X3X3X3X%X2XkXzXqX3XmXMXyX1X| m m m F C F F.W.W.W.n.a.P 8 8 Z C C 8 4 ",
"~.~.~.~.~.T.Q.Q.`.`.}. X}.`.Q.U.I.P.P.P.L._.xXbXkXqX3X3X*X3X3X-X>X:X-XcXxXrXrXvXvXwX3X .M ' m F Y H t t U b.#.$.c h - $ : q q q ",
"T.Y.P.P.T.Q./.].}.|.[.]./.Q.P.Q.T.T.P.U.(.pXCXbX8X3X3X3X#X<X<X#X2X3X=XrXtXrXtXzXcXkX1X8.>.>.m & w w d - o 0 c +.) c E 7 2 2 7 H ",
"L.P.T.~.`.`.[. X}.]./.Q.Y.U.Q.`.(.~.Q.`.{.aXCXbXwX6X3X3X<X3X3X#X3X3X;X7X3XrXrXtXbXvX8X8.<.4.] 9 6 7 G F d 9 P P ^ E ! E H 4 4 7 ",
"Y.Q.[.pXaX X[.[.`./.Y.U./.`.[.|.pX{.`.[.pX}.bXvXeX3X<X3X3X3X3X*X;X<X7XrX3XrXtX0XyXcX9Xq.2.6.<.1 X O w d p w h h h w j l c j > $ ",
"}.pXpXaXpX[./.Q.!.`.`.`.}.pX X}.{.}.pXpXpX|.bXMXxX3X<X3X3X<X>X#X&X3XqX7X7XqXuX0X-X<X1Xq.7.e.4.i - : o O ; > h j k h h k k k k j ",
"pXpX[.].`./.Q.!.[.pXdXpXpX}.[.[.pXhXBXNXhXgXbXbXeX-X<XqXeX<X*X#X&XqXqX=X>X5XuX8X*X*X<X0.e.e.7.U C Z : =   o ; g v v v h , p h x ",
"}.].Q.Q.~.`.}.}. XdXaX}.].`.[.aXgXBXFXSXBXgXlX5X:X<X0XqXuX0X#X#X*X8XqX&X=X<X7X3X-X&X+X..7.r.7.r - q d q ; @ O = k +.$.v w : q k ",
"I.!.'.aXpX'.}.'.].]._._._.pXgXhXBXSXFXBXgX}.8X0X0X8X0X,X8X3X@X#X+X-X,X&X+X=X-X,X,X=X@XV <.6.7.B - 8 S H S H S 6 8 v #.s.T T G T ",
"B V @.@.@.} V ) B B V $.-.-.-.y.u.u.y. .{ m.=.=.A.XXA.Z.` _ ` f f f _ ` ` M._ ` _ M._ 5 [ t F.F.u 8 Z S Z K K S D ^ h.z.d.! K 5 ",
"Y l v X.l D Y a.*.=.=.=.-.-.=.$.| >.] m B V iX=.&.%.*.P x.d.Q 5 c %.v } =.C.b.C.b.b.n.U 8 ( l l & : w 8 C S H e d l _ ~ ! Q s.x ",
"k s j v } x.z.V.-.-.=.=.$.$.X.k j n m B OXOXOXoXB J.N m s.Y L W I w x v c ( #.n.n.m.*.( / C.e D 7 8 H K C 6 4 $ A A E s.g.g.l.#.",
"#.#.&.=.=.S.N.V.-.=.$.v a p a a a b b i O.O.O.oXh b b 5.j.J G 6 2 X $ 8 P = ) E.C.n.#.$.=.U e e C 4 8 S C 6 4 $ 4 7 Y p.g.! h.#.",
"V.V.V.S.*X$Xv.Y l k g q > = > p 1 < & ; O.oXv h h r n m ' r G 4 X > ; > ) q Z / P H E h.v.Q l.E s.9 @ 2 4 7 8 : 3 # 2 R f.l.f.s.",
"A.*.&.` X.f 0 - ; , , > ; ; p p 1 +   O f f ; . + & h x 1   @ $ 2 X @ X = p 2 % 7 j +.+.*.&.#.) _ e X     O $ : w : = $ e e e 5 ",
"^ h * * . 2 6 8 > ; % , x x k > < . o r > , ; = < & < n r b a ) s.A G 8 j D ! p.B.$.@.*.*.V.l.l.N.i.4   X # 2 8 H H d = a p H 4 ",
"8 @ X : d D 6 8 d d L x v c g O . . + r a p   . r < b m 5.] ; % J J A D c p.d.f.~ h 1 h j ~ g.l.~ G @ X @ # # 2 7 Z g ; h x E 7 "
};
