/* XPM */
static char *result[] = {
/* columns rows colors chars-per-pixel */
"64 64 215 2 ",
"   c #000100",
".  c #0A0501",
"X  c #010C00",
"o  c #0B0A01",
"O  c #00060C",
"+  c #020A0D",
"@  c #0C0D0C",
"#  c #110600",
"$  c #120B00",
"%  c #190A00",
"&  c #011400",
"*  c #0B1301",
"=  c #031A00",
"-  c #0A1B01",
";  c #0C140B",
":  c #001D0B",
">  c #0A1A0A",
",  c #121200",
"<  c #1A1307",
"1  c #131C00",
"2  c #1B1C00",
"3  c #12100E",
"4  c #070516",
"5  c #0B0E12",
"6  c #110C11",
"7  c #02131D",
"8  c #0D1319",
"9  c #131413",
"0  c #17191A",
"q  c #250601",
"w  c #2A0101",
"e  c #330102",
"r  c #3A0102",
"t  c #251803",
"y  c #2A1A02",
"u  c #271513",
"i  c #032400",
"p  c #0D2001",
"a  c #042A00",
"s  c #082A04",
"d  c #0C220B",
"f  c #1B2604",
"g  c #142B02",
"h  c #053600",
"j  c #053A00",
"k  c #0B3D03",
"l  c #0A3A0B",
"z  c #133803",
"x  c #002C15",
"c  c #1C251A",
"v  c #193813",
"b  c #272701",
"n  c #352704",
"m  c #2E3600",
"M  c #383405",
"N  c #3E3812",
"B  c #33311B",
"V  c #011925",
"C  c #251A20",
"Z  c #03222F",
"A  c #1B2324",
"S  c #02273B",
"D  c #282A28",
"F  c #2D382D",
"G  c #323433",
"H  c #373935",
"J  c #3D3E3D",
"K  c #490003",
"L  c #570103",
"P  c #451502",
"I  c #5C1A03",
"U  c #650303",
"Y  c #730503",
"T  c #701A04",
"R  c #4E2600",
"E  c #442A01",
"W  c #532A00",
"Q  c #4B3109",
"!  c #553400",
"~  c #593700",
"^  c #553900",
"/  c #5A3B00",
"(  c #56370C",
")  c #59390D",
"_  c #452E1C",
"`  c #643E04",
"'  c #643F0D",
"]  c #653E12",
"[  c #503F3D",
"{  c #064500",
"}  c #0B4503",
"|  c #064A00",
" . c #0A460B",
".. c #164904",
"X. c #075500",
"o. c #0A5300",
"O. c #075B00",
"+. c #0C5A01",
"@. c #145100",
"#. c #12550B",
"$. c #004F12",
"%. c #284900",
"&. c #3F4608",
"*. c #2B5102",
"=. c #076500",
"-. c #0A6400",
";. c #006F01",
":. c #0A6C00",
">. c #126D09",
",. c #0C7100",
"<. c #097E00",
"1. c #107102",
"2. c #1D641B",
"3. c #35690D",
"4. c #2F6911",
"5. c #314426",
"6. c #3E413E",
"7. c #3B5538",
"8. c #434905",
"9. c #524007",
"0. c #45510E",
"q. c #595703",
"w. c #694406",
"e. c #66410F",
"r. c #754906",
"t. c #7D570A",
"y. c #486409",
"u. c #47671B",
"i. c #686604",
"p. c #737204",
"a. c #40413F",
"s. c #554C3F",
"d. c #69533F",
"f. c #053147",
"g. c #03324C",
"h. c #053A59",
"j. c #3C4141",
"k. c #064569",
"l. c #224A68",
"z. c #424241",
"x. c #464947",
"c. c #484449",
"v. c #475644",
"b. c #565249",
"n. c #555956",
"m. c #6D564A",
"M. c #745947",
"N. c #516351",
"B. c #686958",
"V. c #61705F",
"C. c #6C7069",
"Z. c #9D1205",
"A. c #A30906",
"S. c #A36E09",
"D. c #0A8200",
"F. c #0A8C00",
"G. c #148605",
"H. c #0B9100",
"J. c #069801",
"K. c #18940A",
"L. c #3D8B01",
"P. c #3F8119",
"I. c #00B300",
"U. c #448109",
"Y. c #598615",
"T. c #4F9316",
"R. c #5EBC17",
"E. c #65AB18",
"W. c #71B32C",
"Q. c #22D80F",
"!. c #22CC11",
"~. c #70D02B",
"^. c #6CC234",
"/. c #78C64D",
"(. c #7FC859",
"). c #9A9905",
"_. c #D3870C",
"`. c #CF8412",
"'. c #CE851B",
"]. c #D38714",
"[. c #D58A1C",
"{. c #CE8626",
"}. c #CF8926",
"|. c #CF872A",
" X c #CF8A28",
".X c #D08727",
"XX c #D38927",
"oX c #D08729",
"OX c #D48A28",
"+X c #D18C3A",
"@X c #86DB2D",
"#X c #D18F49",
"$X c #D79245",
"%X c #D6934B",
"&X c #D89554",
"*X c #DDA15D",
"=X c #E1AE77",
"-X c #87CB68",
";X c #8ECD73",
":X c #91CD77",
">X c #9CD186",
",X c #E8C08E",
"<X c #E7C193",
"1X c #F4DFC7",
"2X c #EFEFEF",
"3X c #E8F1E5",
"4X c #EEF3EC",
"5X c #F3F3EF",
"6X c #FBF3EE",
"7X c #F5F5F5",
"8X c #FAF7F5",
"9X c #F6F9F6",
"0X c #F8FAF7",
"qX c #F8F7F8",
"wX c #FCFCFC",
/* pixels */
"X.| j i { | j | { k { | | X.O.| | | | X.O.X.| { | | o.O.X.X.| { | { * . . o . o         # 2 ,.D.H.H.H.H.H.F.H.H.H.H.F.F.H.H.H.H.",
"X.| j = { { j { { j { { { o.o.{ { | { X.O.X.| | { | O.X.O.X.| | | { - * . . . .         . * X.O.O.O.X.| | X.O.O.O.O.O.o.o.| o.O.",
"X.| j i | | j { { = = X   & & X X   & h { X.{ { { { o.X.X.X.{ { { { o.| * . o .         . . o - X.X.| { | { X.O.O.X.X.| { { { X.",
"X.{ h i { { j | | a i & X & & X X   X i i = & & & = i i i i X X & & a a                       X o.X.{ { { { X.X.X.X.X.| { { { X.",
"j a & h j j { O.:.=.-.{ h { { { { { { X.X.{ { { | X.o.j - X   = h { X.o.* . .         . .       i a & & = & a i i i i & & X X & ",
"j a & j j j { | j i & X X X = a j } | X.X.| { { | #.#.l > ; @ @ ; ; > d 3 @ 3         # o . . * | X.{ { { { | { h i = = X       ",
"h i   h j h { { j a X   X X = = & X X X & X X X &                                               & & & X X X & & X               ",
"{ j a { { { o.| j i         & - X       O = = = ; a.c.c.z.z.z.a.z.z.z.j.J J [ @                                                 ",
"F.F.F.F.F.F.H.D.O.{ a i i i i = X       X = >   j.2X2X4X7XqX7XqX9X9X7X7X9X8X2Xa.  @                         X X X - = & X X     ",
"O.{ a i a j O.D.F.F.F.F.<.,.*.m y # # # , 1 f   x.5X-X;X0X0XwX0XwX0XwXqX9X0X9Xz.  3 . # # # #                       & = = = & X ",
"X.j           = i a h } | %.Z.Z.A.! ! ! ! ! ( R m.7X(.3X7X>X3X>X4X:X4X;X^.;X2Xm.R ( ~ ! ! ! ! .             &         = = = - = ",
"X.j &                 & X # U U T ~ ~ ~ ~ ~ ) W m.4X/.;X0X3X;X4X9X/.7X7X/.4X8Xd.W ) ~ ~ ~ ~ ! $                                 ",
"a &     X           X - X # L I i.~ ~ ~ ~ ! ( R m.4X-X3X0X>X3X>X4X;X9X0X;X9X9Xd.R ( W ~ ~ ~ ! #                                 ",
"a =   a h =                 e P q.~ ~ ~ ~ ` ] ~ M.7X-X-X0XqXwX9XwX0XwXwX9XwX8XM.` e.` ~ ! ~ ! #                                 ",
"a &     X   X X   X         w r P ~ ~ ! ` {.OX`.#X5X5X5X8X8X8X8X9X8X8X8X9X8X7X#X`.OX{.` ! ~ ! #                                 ",
"a X         X X   X X   X $ U Y Y ~ ! ! ` .XOXOXOX%X&X&X%X%X%X%X%X%X%X%X%X%X%XOXXXOX.X` ! ~ ! #                     X       X = ",
"| =                         % t q ^ ~ ! ` {.OXOXOX]._.].].].[.].].[.].[.].].].OXOXOX.X` ! ~ ~ #                             X = ",
"<.X.a X         X =             X ! ~ ! ` .XOXOXOXOXOXOXOXOXOXOXXXOXOXOXOXOXOXOXOXOX.X` ! ~ ! o                             X = ",
"| =             = X             # ! ~ ! ` .XOXOXOXOXOXOXOXOXOXOXXXXXOXOXOXOXOXOXOXOX{.` ! ~ ! ,                                 ",
"{ &   & X X & X = X             # ~ ~ ! ` .XOXOXXXOXOXOXOXOXOXOXXXOXOXXXOXOXOXOXOXOX{.` ! ~ ! ,                                 ",
"X.j a { h { { h h -       X - X # ! ~ ! ` .XOXOXXXOXOXOXOXOXOXOXOXOXOXOXOXOXOXOXOXOXXX` ! ~ ! , & X                             ",
"X.a   & X X o $ &   X X   X X   # ! ~ ! ` .XOXOXOXOXOXOXOXOXXXOXOXOXOXOXOXOXOXOXOXOX.X` ! ~ ! z | { o . o .         . .         ",
"j X       . K L #   - X       X $ ! ~ ! ` .XOXOXOXOXOXOXOXOXXXOXOXOXOXOXOXOXOXOXOXOX.X` ! ! ! ..X.X.* .         .         . .   ",
"h X         # q                 . ! ~ ! ` XXOXOXOXOXOXXXOXOXOXOXOXOXXXOXOXOXOXOXOXOX.X` ! ~ ! , & =                             ",
"h                               # ! ~ ! ` .XOXOXOXOXOXOXOXOXOXOXOXOXOXOXOXOXXXOXOXOXXX` ! ~ ! #   X = = & X                     ",
"j =           X   X -         & $ ! ~ ! ` {.OXOXOXOXOXOXXXOXOXXXOXOXOXOXOXOXOXOXOXOX.X` ! ~ ! , X X & = X                       ",
"<.X.j =   X X X &             X , ! ~ ! ` XXOXOXOXOXOXOXOXOXOXOXOXXXOXOXOXOXOXOXOXOX.X` ! ~ ! $   X X & & X & &                 ",
"D.O.| h a { { j { i % %   X X = g ! ~ ! ` XXOXOXOXOXOXOXOXXXOXOXOXOXOXOXOXOXOXOXOXOX.X` ! ~ ! $ = { h { { h { { X               ",
"D.O.| j a { { k { p U U # X o X , ! ~ ! ` .XOXOXOXOXOXOXOXOXOXOXOXOXOXOXXXOXOXOXOXOX.X` ! ~ ! $   & X & & X & X                 ",
"<.O.{ j a | | j { o e w         # ! ! ! ` .XOXOXOXOXOXXXOXOXOXOXOXOXOXOXOXOXOXOXOXOX.X` ! ~ ~ .                                 ",
"{ a i { | { { j { &         X X 1 ! ~ ! ` .XOXOXOXOXOXOXOXOXXXOXOXOXOXOXOXOXOXOXOXOX.X` ! ! ! #   = = = = = =         =         ",
"h i   & X X & i j a X X         $ ! ~ ! ` .XOXOXOXOXOXOXOXOXOXOXOXOXOXOXOX.XOXOXXXOX.X` ! ~ ! , X - = = = = =         =         ",
"X     X         &               # ~ ~ ! ` XXOXOXOXOXOXOXOXOXOXOXOXOXOXOXOXOXOXOXOXOX.X` ! ~ ! $             X                   ",
"      X         X     X   X X X 1 ! ~ ! ` XXOXOXOXOXOXOXOXOXXXOXOXOXOXOXOX{.{..X.XOX.X` ! ~ ! $     X = & = = = = X X     X X = ",
"                X       w e .   # ! ~ ! ` .XOXOXOXXXXXOXOXOXOXOXOXOXOXOXOXr.w.w.r..X.X` ! ~ !                                   ",
"                -     . L Y 2 X , ! ~ W ` .XOXOXOXOXOXOXOXOXOXOXOXOXOXOXOXoX.X'.#XOX.X` ! ~ ! n & & & & & & X X X & & & X & X X ",
"                a =     # q X X g ! / ! ` .XOXOXOXOXOXOXOXOXOXOXOXOXOXOXOXOXXX=X6X*X`.' ! ! w.).*.| o.X.X.{ { { { X.X.X.{ { { { ",
"                i =             , ! ~ ! ` .XOXOXOXOXXXOXOXOXXXOXOXOXOXOXOX].$X8XwX,XXX` ! ! / i.f = i i i & X X X i = i & X & X ",
".             X a = X           1 ! ~ ! ` .XXXOXOXOXOXOXOXOXXXOXOXOXOXOXOXOXOX<X8X1X+X` ( ^ ! M                                 ",
".               i = & & X X O O 1 ! ~ ! ` .XOXOXOXOXOXOXOXOXOXOXOXOXOXOXOXOXOXOX%X$X{.` ! / ^ n                                 ",
"o                 & X.X.{  .f.S z ! ~ ! ` |.OXOXOXOXOXXXOXOXOXOXOXOXOXOXOXOXOXOX].[..X` ! ! ! $                             X X ",
".                 X X.X.{ l Z V p ! ~ ! ` |.OXOXOXOXOXOXOXOXOXOXXXOXOXOXOXOXOXXXOXOX.X` ! ~ ! 1 & & & & = & = = X       & a j { ",
"                    & & X   - = , ! ~ ! ` .XOXOXOXOXOXOXXXOXXXOXOXXXOXOXOXOXXXOXOXOX.X` ! ~ ^ @.{ { { { { h a = = = = = a j { X.",
"                                # ~ ~ ! ` .XOXOXXXOXOXOXOXOXOXOXOXOXOXOXOXOXOXOXOXOX.X` ! / ! 1 & X & = i = = = = = = = a j | X.",
"7                               # ! ~ ! ` .XOXOXOXOXOXOXOXOXOXOXOXOXOXOXOXOXOXOXOXOX.X` W ~ ! $       X = & = = = = = = a j { X.",
"V O O                           # ! ~ ! ` .XOXOXXXOXOXOXOXOXOXOXOXOXOXOXOXOXOXOXOXOX.X` ~ ~ ! $     X X - 1 = X           X X & ",
"t @ g.V                         $ ! ~ ! ` .XOXOXOXOXOXOXOXXXOXOXOXOXOXOXOXOXOXOXOXOXXX` W ~ ~ $   X M M 8.q., X & X - = = X X X ",
"y @ g.S     : - s -       o # X g ! ~ ! ` XXOXOXOXOXOXOXOXOXOXXXOXOXXXOXOXXXOXOXOXOX.X` ! ~ ! 1 & 1 i.i.i.p.f   X X & = = X X X ",
"t . O O       X s i : - - s o X g ~ ~ ! ` |.OXOXOXOXOXOXOXOXOXOXOXOXXXOXOXOXOXOXOXOX.X` ! ~ ! 1 & & 2 2 f f                     ",
"b *             s - i - i s @ X g ! ~ ! ` XXOXOXOXOXOXOXOXOXOXOXOXOXOXOXOXOXOXOXOXOX.X` ! ~ ! $                     = & X X X = ",
"-.X.X           o       - s o . g ! ~ ! ` |.OXOXOXOXOXOXOXOXOXOXOXOXOXOXOXOXOXOXOXOX.X` ! ! ! 1 = X X X   X X X - = = X X X & = ",
"-.X.&           .               $ ! ~ ! ` |.OXOXOXOXOXOXOXOXOXOXOXOXOXOXOXOXOXOXOXOX.X` ! ~ ! $                                 ",
"-.X.h i         .               . ~ ~ ! ` .XOXOXOXOXOXOXOXOXOXOXOXOXOXOXOXOXOXOXOXOXXX` ! ! ! $                                 ",
"a = X                           # ! ~ ! ` .XOXOXOXOXOXOXOXOXOXOXOXXXOXOXOXOXOXOXOXOXXX` ! ~ ! 1 & X                             ",
"X         X                     $ ! / ! ` OXOXOXOXOXOXOXOXOXOXOXOXOXOXOXOXOXOXOXXXXXXX` ! ~ ! .                           X X X ",
"X         X                 - : $ ! ! W ` {.{.{.XXXX|. XXX|.|.}..X}.}..X.X{.|.{.|.{.{.` ^ ~ ! <   X = = - = = X X X & & = h { { ",
"                                . $ % # , 0.c.s.B.W.C.Y.y.&.y.N N B N Y.u.Y.8.&.M y.8.f 3.b q.q.o X - = = = = = i j { { h a i & ",
"X         X X X                   . o @ 8 A C.x.6.b.n.$.I.F.;.x G n.6.z.V.~.T.R.4.4.P.*.g s 1 <       & = = =     X & = = = =   ",
"          X X X                   o . 8 k.h.l.h._ ].] 9.G.-.+.1...c G H H 5.x.T.U.u.v.B 4.T.g   = = = = & X &   X X X = = - &   ",
"X   X X + + & &                   . . 5 h.h.g.k.D ! E S.L.O.X.h =   3 l #.5 a.@XE.U.F x.n.v a = i i = = X X X   X X X = = = i & ",
"h a h l f.S i =                   . . 5 h.g.A 0 D n Q ) t.b | i X 0 9 9 J c ..4.@.} k >.2.>.K.{ +.i & - X X X   X X X a h { X.{ ",
"X     X 4 O                             7 4 .   @ $ D G u . : ; i & o X 3 0 s : l D G F x.7.7.c v ; X                 X X X & X ",
"X         X X X     X           . . o .     5 6 t % u Q n n C j.G.| o.l D  .<.F.!.N.c.c.j.Q.G.1.G.| i X X = = = = =         = & ",
"X         X X X     X           o . . .       . n y ! n r.Q . > +.O.|  .5.G.J.J.G.D 0 D > O.:.-.{ = & X X = = = = =         = = "
};
