/* XPM */
static char *result[] = {
/* columns rows colors chars-per-pixel */
"64 64 256 2 ",
"   c #010101",
".  c #080607",
"X  c #021802",
"o  c #160910",
"O  c #28110D",
"+  c #28021C",
"@  c #022A01",
"#  c #0F370C",
"$  c #2A2E13",
"%  c #050C30",
"&  c #360428",
"*  c #2C1226",
"=  c #083035",
"-  c #292A28",
";  c #302D2D",
":  c #2A3929",
">  c #393529",
",  c #342932",
"<  c #383735",
"1  c #52350C",
"2  c #613B0D",
"3  c #440734",
"4  c #530B3D",
"5  c #62003E",
"6  c #691E3F",
"7  c #493737",
"8  c #054803",
"9  c #134C0D",
"0  c #065902",
"q  c #2A4C14",
"w  c #076701",
"e  c #087701",
"r  c #147606",
"t  c #146C13",
"y  c #2E780D",
"u  c #084C35",
"i  c #354A27",
"p  c #364635",
"a  c #325330",
"s  c #0A652E",
"d  c #2B6F2E",
"f  c #734D08",
"g  c #625B12",
"h  c #474634",
"j  c #132543",
"k  c #07344B",
"l  c #580F41",
"z  c #640944",
"x  c #691548",
"c  c #483B44",
"v  c #6F2C4C",
"b  c #094F4F",
"n  c #2E524E",
"m  c #036B51",
"M  c #336A4E",
"N  c #1A5B6B",
"B  c #494949",
"V  c #514F4D",
"C  c #495848",
"Z  c #544B52",
"A  c #585858",
"S  c #6F4D54",
"D  c #4A6449",
"F  c #576757",
"G  c #4A7451",
"H  c #577657",
"J  c #68685C",
"K  c #665C61",
"L  c #676767",
"P  c #687667",
"I  c #77706B",
"U  c #787977",
"Y  c #BC3F23",
"T  c #E2130D",
"R  c #8A5B0E",
"E  c #986912",
"W  c #A86D13",
"Q  c #9E4E26",
"!  c #956A33",
"~  c #B2772A",
"^  c #9D027B",
"/  c #9E187C",
"(  c #A3097E",
")  c #9D2A7B",
"_  c #A3247E",
"`  c #8F6B4C",
"'  c #96774B",
"]  c #96744E",
"[  c #997756",
"{  c #9C7C52",
"}  c #A17E5C",
"|  c #8A626D",
" . c #A37C61",
".. c #EF6155",
"X. c #0B8501",
"o. c #048902",
"O. c #0C8D01",
"+. c #118504",
"@. c #0B9401",
"#. c #039800",
"$. c #0C9B01",
"%. c #139A07",
"&. c #139114",
"*. c #278F18",
"=. c #0CA301",
"-. c #04A801",
";. c #0DAC00",
":. c #14A906",
">. c #0DB400",
",. c #05B901",
"<. c #15B907",
"1. c #17AD14",
"2. c #2AB316",
"3. c #129328",
"4. c #318F2C",
"5. c #30AF2D",
"6. c #46A41E",
"7. c #06C501",
"8. c #0DCC00",
"9. c #16C606",
"0. c #09D800",
"q. c #17D507",
"w. c #12DB01",
"e. c #18C914",
"r. c #1CD513",
"t. c #29D012",
"y. c #0AE700",
"u. c #17E607",
"i. c #13EB02",
"p. c #05F700",
"a. c #16F703",
"s. c #1DFB0B",
"d. c #1DE613",
"f. c #19F514",
"g. c #28EF10",
"h. c #26F917",
"j. c #2CFD1C",
"k. c #0FD430",
"l. c #2FD029",
"z. c #34E92D",
"x. c #2AF722",
"c. c #34FC24",
"v. c #38F62A",
"b. c #3AFC2B",
"n. c #3DFB34",
"m. c #42CF0F",
"M. c #45F414",
"N. c #43CE34",
"B. c #46FB38",
"V. c #50F233",
"C. c #32A343",
"Z. c #599755",
"A. c #4CB34A",
"S. c #718E70",
"D. c #788877",
"F. c #2DE247",
"G. c #4CCA48",
"H. c #4EE74E",
"J. c #4BF845",
"K. c #53FD44",
"L. c #57F84B",
"P. c #5BFB53",
"I. c #68F452",
"U. c #66FC5A",
"Y. c #58D962",
"T. c #6DFB63",
"R. c #75FD6A",
"E. c #6DEB72",
"W. c #7CF574",
"Q. c #7CFD72",
"!. c #A49826",
"~. c #DE981D",
"^. c #EEA931",
"/. c #E6E428",
"(. c #938672",
"). c #A08D60",
"_. c #EDAC49",
"`. c #E1A75A",
"'. c #85F171",
"]. c #84FC7B",
"[. c #F1F44D",
"{. c #F1C473",
"}. c #F0FA72",
"|. c #076F97",
" X c #4979A0",
".X c #A90385",
"XX c #A91485",
"oX c #A71983",
"OX c #AD1688",
"+X c #AE1A89",
"@X c #B0148A",
"#X c #AC2986",
"$X c #B02F8A",
"%X c #AF3588",
"&X c #B0438A",
"*X c #827D82",
"=X c #7F8880",
"-X c #06B6DB",
";X c #13B7DC",
":X c #0EBDE3",
">X c #34B8E2",
",X c #4EADD8",
"<X c #04C6ED",
"1X c #14C7EC",
"2X c #0ACAF0",
"3X c #2BC4E8",
"4X c #53C9E9",
"5X c #70CCF0",
"6X c #868986",
"7X c #899788",
"8X c #92908F",
"9X c #969795",
"0X c #A19F9E",
"qX c #96A895",
"wX c #A9A39B",
"eX c #ABAFA9",
"rX c #B7B6B6",
"tX c #C4AB8C",
"yX c #C8AD8F",
"uX c #C8B18E",
"iX c #C8AE92",
"pX c #CAB496",
"aX c #D0B99A",
"sX c #C5BAA9",
"dX c #F3ADA9",
"fX c #8CEC8C",
"gX c #8BFC84",
"hX c #93FC8A",
"jX c #9BFA94",
"kX c #A4FC9B",
"lX c #B9C4B8",
"zX c #86F6A8",
"xX c #ABFCA5",
"cX c #B3FEAC",
"vX c #AAF0B0",
"bX c #BAFAB6",
"nX c #F3CC8C",
"mX c #E2DDAD",
"MX c #C2FBBC",
"NX c #BEBFC0",
"BX c #A5DAF4",
"VX c #C7C8C6",
"CX c #CED2CD",
"ZX c #D8D8D8",
"AX c #EDD6D4",
"SX c #CAFDC6",
"DX c #D5F6D1",
"FX c #DAFBD7",
"GX c #F2EBD2",
"HX c #DAE3EC",
"JX c #E8EAE7",
"KX c #E8FBE6",
"LX c #EEF3F1",
"PX c #F6F7F6",
"IX c #F5FEF4",
"UX c #FCFEFC",
/* pixels */
"8.w.y.0.y.<.<.t r +.o.X.X.O.-.<.7.,.#.o.o.O.#.$.-.-.-.7.r.B.K.J.a.#.- A P *X6XB ; : ; : ; ; - - - o - # - $ i p a 1.i.c.B.j.i.8.",
"y.a.j.c.x.P L B 7 n r w e r <.0.d.x.1.1.<.r.d.r.d.e.l.l.D.7Xn.h.g.&.; I U 6X8Xc - o o o - ; - - : - - 0 e O.#.;.q.a.j.c.c.a.8.$.",
"s.B.].xX].qXU D C C M 9 0 : Z.z.(.7XH D F F H Z.H H S.7X9XrXqX7X7XF D VXNXCXZXV , Z Z B < : , 7 %.#.@.o.e e e o.$.>.7.q.a.w.;.O.",
"b.Q.bXFXjXP.x.u.q.r.e.%.8.<.L.T.K.T.l.e.F L 5.1.e.2.x.J.Q.SXvXrXkXx.H.IXHXZXZXA 8XPXPXJXrXL B C :.>.9.:.>.>.>.a.e.1.*.e e 0 8 @ ",
"q.j.U.kXK.y.#.X.O.a D 0 ,.8.j.B.a.g.>.@.B V +.#.+.O.,.9.r.z.l.5.B.s.K.PXnXwX0XA 9XUXUXLXrXL Z F q.y.a.w.0.8.8.d.B.K.jXR.t.;.#   ",
"w.p.B.].n.y.;.X.=.1.:.=.d.d.b.c.i.u.o.d 6XJ %.q.@.h.N.1.8.j.p.a.U.Q.R.UXAXsXrXA 9XUXUXLXrXL Z D r.r.q.;.$.O.#.2.Q.].SXSXn.p.O.8 ",
"w.a.B.B.a.7.>.=.8.w.0.u.B.T.Q.K.i.-.4.V.2.b b b = a DXz.5.bXz.p.P.hX].PXZX9X8XV 9XPXUXHXeXL V V F F 1.;.=.<.,.z.KXKXUXUXQ.K.9.8 ",
"u.J.Q.b.j.r.9.>.w.u.q.h.b.R.U.c.a.Z.hXg.m ;X1X1X:Xk p u C FXP.A.l.B.xXUXUXCX~.$ o n B < , X .   o . @ @ @ @ @ a cXFXUXUXkX].v.#.",
"K.xXIX].R.B.h.s.b.B.b.P.K.U.B.p.H.FXL.m ;X1X2X1X2X:Xb <X;XN F LXjXV.jXPXUXMXV.@   .   .   +   +   +   + o +   # U.R.hXIX].T.U.e.",
"s.R.SXL.b.j.9.w.i.q.q.d.d.j.m.6.6.'.d >X2X1X1X2X1X1X1X2X1X<X>XN G KX7XlXVXqX5.@ & / 3 / 3 / 3 / 3 / 3 / & / + 8 j.h.b.kXB.b.B.<.",
"p.B.xXB.s.B.7.8.y.,.w.i.q.m.~.T ..dXA LX5X2X2X1X1X1X1X2X1X1X2X3Xn R.z.P.P.L.1.@ & XX4 / 3 / l XXl ( 3 XXl XX+ 8 b.c.B.R.B.B.B.i.",
"7.n.gXK.B.L.2.0.a.>.w.9.8.m.T T Y dXc 4XLX3X2X1X2X2X2X3X1X2X5XLXV bXR.O.e +.+.X + / @X( o + ^ 3 / & o XXXXoX+ # u.u.i.j.B.c.B.s.",
"&.S.7XS.qX7XZ.e.8.@.e a q h T T !.[.p <X4X1X1X1X3X1X>X(.>X4XLX4Xk a l.8     X     + , , , - , * *   . * & * o @ %.@.@.@.9.9.<.>.",
"O.z.B.L.jXT.z.n.f.9.;.r ,.N.....^./.C <X2X2X2X1X(.(.(.pX).(.4X2X-Xu V.t 8 X     . - A 6XeXeX8XU B B < B B n Z C x.u.:.%.w.w.9.9.",
"*.D.D.qXNX6XS.r.$.o.w M gXhXAXdXQ ..c <X1X1X2X>X).pXaXaXpXpX(.3X<Xb 9.8         X , L 8XrXeX9XU A B n Z V A K L D.P &.w O.+.a p ",
"3.D.D.wXCX7XD.2.O.x.n.eXIXMXdXdX6 T c 2X1X2X3X(.iXsXaXaXsXpX).3X<Xu g.9   @ 8 e r P 9XVXHXZXsX0XD.I U | *X8X9XrXsX9Xm.r +.r i < ",
"q.j.B.jXjXU.c.0.c.hXzXSXUXDXkXI.q y u <X1X<X3X).h pXaXpXh pX(.3X<Xu L.9 w @.8.s.j.Q.MXIXIXPXAXnX^.~.~.*X*X8X0X{.nX_.~.f R R :.>.",
"c.c.R.kX].L.u.7.n.kXbXDXLXvXU.x.t Y.g.b :X<X3X[ p pXaXpXB iX).1X:Xn '.d r #.8.s.h.B.n.J.K.L.!.~ W W ~ U 9XwXwX{._.^.~.R W R 2.<.",
"K.n.bXFXSXxXL.U.xXIXIXMXY.3.t F.5.E.H.u k <X3X(.,XsXaXsX4XsXpX>XN w I.5.gX5.7.a.s.B.s.a.c.p.i.j.U I *XU rX{.{.rXI K A ~ 8X*XP C ",
"Q.n.cXxXxXFX].bXKXhXJ.l.t C.1.1.9 b n -Xb -XM wXsXpXpXuXsXiX7 b ;Xk s H.kXfXJ.9.e.e.<.q.d.e.,.x.S.D.U Z 8X_.~.U , - > ~ rX0X9XL ",
"hXB.cXcXFXIXkXSXQ.p.-.2.I.MXM = k -Xj = C.k C.h 1 ; 7 > $ - 8 # = k -Xb b G xXM.L.J.w u.a.i.7.r.d.H.=XA 9X`.^.(.; - > ~ rXeXeXI ",
"hXB.kXIXUXUXIXMXB.z.R.xXM N ;X-X= u @ < rXL JX4.X ] ' ` o X 9 i X # = u -X-XN b t V.t 8.U.I.T.qXD.S.U c C S E S ; $ O ~ sXVXrX6X",
"cX].].FXMXSXAX..6.hXL.M ;X-Xb b p N.5.F.].V.bXz.q wX).' $ e 5.vXA.B.7.z.s k -X-X= v.U.L.Q.xXUXFXcXjXU f f R E E R g 1 g {.{.{._.",
"kXjXkXFXkX'.....V.v.9 % b j i T.qXVX=XD.DXD > 9 1 yXtX).O $ $ K FXK.H.cXH.8 k b = 0 L.SXgXxXUXFXjXxXD.E f f E E E f 1 f ^.^.^.~.",
"cXcXhXcXP.p.G.DX].s % ;X-X< rXn.P rXU o c .XXX[ { uXpXyX{ ] +X( c V JXQ.SXH.0 :X<X% u U.kXP.SXUXSXFXW.g.9.t.E W W f O f ~.~.~.~.",
"MXcXT.B.=.o.-.A.n -XN ;Xm 4.fXZ.HXH   & .X#X .iXpXpXuXpXyX).[ #X.X& C I.Y.T.j.m -XN -Xm z.#.T.UXUXUXMXl.>.r.P J J -   7 W W W 1 ",
"U.U.c.a.@.%.g.#.= 1X:Xb q.S.H 5.eX- + XX#X .iXpXuXaXuXuXuXyX).} #XXX  C LXH B.g.b :X<Xu 7.<.z.SXKXUXkXr.7.c.j.h.D +   > W W E > ",
"U.B.h.c.<.>.x.:.k 1Xb # x.P.-.L.L.q ] #X#XtXpXpXiXuXuXaXyXyXtXyX$X%X] 7 rX* 0 e.8 b ;Xb 2.T.b.bXUXUXhXd.:.B.c.g.F o X < W W W > ",
"B.b.s.h.=.;.f.;.b -X* f m.].Z.KXJ.q `. .+X$X%X$X&XiXuXuX&X$X%X$X$XyX{ $ F a l.g.<.= -Xn eXK.z.SXUXUXlXH a h.s.q.1.@ o , h K V > ",
"h.a.a.h.=.$.w.g.h.u k , u T.LXS.7.i tX} +X.X.X.X+X .uXyX$X.X@X.X$XyX{ 9 x.kXSXM u k u J.KXU.xXUXUXIXhX9.&.K.K.c.b.r : p h E R 2 ",
"c.a.r.L.r.y.a.&.B.s ;X<X-XG FX5.o.> tX} #XOX+X+X@X_  .%X@X+X+X.X$XyX{ # d.B.M ;X1X-Xa gX].cXUXUXUXUXMX2.X.J.K.K.U.1.8.q.i E f 1 ",
"c.f.<.B.e.<.<.*.z.q.b :Xm H.KXP.,.i wX).+XXXOXOX@XOX+X@X@X@X+X.X$XyX{ : T.U.V.m -Xm A.KXgXSXUXUXUXUXhXt e B.B.Q.hXl.s.q.i E g 2 ",
"J H n =XL F A p a P B j B s A.*.J > tX} oXOXOX+X+X+XOX+X@X+X@X.X%XuX' > 7XH I.u.d P.e.A.bXIXIXUXUXIX].#.1.U.].MXFXP.U.c.q.V.g.i.",
"K K A 6XU U L - A VXZX7XVX7 w &.: > tX} #XOX+XOX@XXXOXOX@X@X+X@X$XuX).O A L 4.+.W.KXH.p.B.P.hXHXT.n.*.@ 0 d.b.].hXz.v.q.8.j.i.i.",
"K F K L A V B ; &.L.gXH.dXQ t.8.0 ; tX} +XXXOXOX+XXXOXOX+X+X+X.X%XyX{ * U 9X9X*XR.T.j.d.d p L D.w.,.w X @ -.H qX7X3.>.r w e e i ",
"J L U A A A Z h a G P D Q R q.@.o.> tX).+XXXOXOX@X+XOXOX+X@X@X.X%XyX{ h CXP K 6XlXqXc.t.B , c C *.O.0 # 8 1.P 9X*Xy <.w w w 8 - ",
"~.~ 6XA V V A F T.bXbXKXxXn.-.i.y.i tX).OXOXOXOXOX@X@XOX@X+X+X.X$XyX{ a zXd &.F.gXU.h.G $ $ 6.!.D o.w w 0 2.F | P t <.w w 0 0 , ",
"^.~.9XA V V A F R.MXSXSXgXvXG.o.w - tX} _ @XOXOXoXoXoXoX/ +X+X.X&XiX' h JXG k.P.R.b.#.# 8 g /./.2.#.+.X.t C A S.l.@.i.O.w w w i ",
"`.~.rXI S J L P ].FXDXKXIXLXxXI.@.i tXtX .#XOX_ 3 + & + + 3 ( %XiXyX' i 6X- G zXSXMXY.# s 4.[.[.6.>.<.>.:.1.1.f.a.$.8.O.O.>.i.i.",
"nX^.AX_.~.~.A D '.IXIXIXUXIXR.U.B.B.h tXuX ._ 3 5 z x z x 5 7 yXuX} q `.JXM 3.vXUXUXPX8Xt *.[.[.*.>.:.:.@.=.,.i.a.$.;.X.#.>.i.i.",
"nX`.GX_.^.^.S A D.eXU.P.].T.5X,Xc.s.> %XiXuX} v x x x x x ) tXyX} _ .Xh G.'.A.bXUXUXUXvXF.&.l.m.+.;.$.X.X.O.>.i.i.$.$.O.@.>.i.i.",
"nX`.JX{.{.{.9X6XrXPXcXxXjXF.>XBXJ.q .X.X%XuXaXwXx z x z 6 wXyX).3 / +X( q J.vXfXPXUXUXUXfX1.o.,.$.>.;.O.o.>.a.s.s.;.X.X.@.>.y.i.",
"nX^.HXfXxXkXxXMXUXUXIXZX=Xd n.J.a .X@X+X( 7 uXaX| z x x | pX} x & @X+X+X.Xi Y.vXE.FXUXUXIXW.<.%.@.=.$.w w >.j.j.j.>.=.=.$.>.>.>.",
"{.`.fXG.vXvXIXUXUXUXUX9XZ 7Xz.q .X#X+X+X@XO S IXPXv 5 S GXPXS 5 & _ +X+X+X.Xa Y.Y.E.SXUXUXIXkXx.#.=.:.+.+.:.j.j.j.8.@.@.@.=.;.>.",
"HX,X5X,XBXBXUXUXUXUXPX`.`.JXA ^ +X+XOXOX_ O v PXL 5 x 5 K PXS 5 * / +XOX+X+X( $ M KXR.IXUXUXIXR.-.@.,.,.,.7.s.a.a.7.@.@.@.=.=.=.",
"BXBX5X XHXBXUXUXUXPXVX| K Z .X+X+XOXOX+XXX+ 5 | 5 z + 5 z S x x + @X@X+XOX+X+X( < Y.:.Q.UXUXUXT.,.:.g.M.M.M.c.a.w.>.=.=.;.>.=.=.",
"{.{.BX XJXZXUXUXkXjXCX*X* ( +X+X+XOXOXOXOX& 5 z x + . & x z z z 3 _ @X@XOXOX+X@XoX: #.].IXMXSXjXd.m.[.[.[.[.m.,.>.>.w.w.w.0.w.w.",
"{.nXPX,XUXUXUXPXG.fX8X7 ( +X+XOXOXOXOXOXOX( 3 6 z z z z z x l 3 ( +X@X@XOXOX_ @X+X.X> 2.T.e.z.K.x.M.}.[.[.[.6.o.r w @.$.@.$.$.#.",
"NXJXPX8XPXGXGXLXT.Y.< .X#XOXOXOXOXOXOXOXOX+XoX3 + & & & + & & XX@X+X+X@X+X+X#X+X+X+X( i p.G.a.y.s.h.M.M.t.m.9.=.O.e o.@.@.O.$.=.",
"ZXAXPX0XUXUXJXsXV.q .XoX.XOXOXOX@X.XOXXXOXXXOXoXXXoXXX/ XXXXXXXX@X.X.X( .X.X.XoX@X.X.X^ L KXT.8.s.c.f.0.,.,.r.:.=.X.X.X.X.X.$.=.",
"xXhXCX*XPXVX0X=XC & / 4 ) l ^ l oX7 / 4 oX4 _ l _ 4 / 4 #Xl ) l / h &XZ &Xh #X4 _ 7 ) A JXjXe.q.h.j.q.v.j.B.P.d.0.>.:.O.O.=.;.=.",
"kXL.9XU 6XL B ; Z B Z g l.t C < y 1.: < - ` { { ` q *.$ ] { { ] q J.KX[.U.f.2.-.*.y.l.n.A.t.T.Q.Q.c.o.u.i.w.f.y.i.a.c.w.0.s.i.y.",
"MXJ.K.z.P *XU B < : ; f %.&.t.&.&.4.U U $ { { { ] i T.i ' { { ] 9 g.H.M.B.T.f.a.p.u.7.9.7.n.bXxXgXj.e 7.r.r.d.0.<.8.u.;.$.w.>.;.",
"KXP.j.r.D F A V V B Z P t.<.1.l.'.'.HXrX> ' { { ' $ &.$ ] { [ ] q I.U.].cXSXl.8.e.:.=.=.7.B.SXxXT.r.0 &.H F D %.O.%.8.$.=.a.8.=.",
"FXP.j.q.<.d.F Z V B Z L t.<.-.6.nXNXsXPXB ] { { ' q 7.q ] { { ] 9 K.SXKXUXUXG.7.<.=.=.;.7.B.gXQ.B.<.e e *.C p O.X.r O.+.w >.$.0 ",
"SXP.c.e.7.u.H Z V n V P l.1.=.A.GXZXZXPXB ' { { ' q J.q ] { { ' 9 B.KXUXUXUXl.7.e.7.w.u.s.g.M.m.:.O.=.=.,.8.@.$.@.w w O.w >.;.e ",
"Q.2.#.$.$.;.1.&.- * - ; p p > ! GXJXZXPXZ ` { { ' q L.q ] { { ' O 4.gXkXbXcX4.e <.8.p.a.7.t.[.[.t.7.s.u.d.d.$.;.8.=.=.w.=.y.i.=.",
"r.X.u u 8 0 w w : : - ; , 1 f ! GXZXVXJXc 6 [ v ` $ k.q ] { { ] i '.U.kXIXIXU.p.s.j.c.B.M.V.nX}.M.p.M.B.T.T.n.s.s.w.8.a.>.a.u.;.",
"Q.n.|.|.3.=.$.@.-.%.: ; : 7 f ! VXsX{.AX7 z x x v - P ; ' { { ] q f.s.T.MXKXT.c.B.].].].mX}.V.l.r.i.j.B.U.L.B.j.s.s.u.c.h.B.B.i.",
"R.v.|.|.3.$.%.&.$.$.: ; ; < f ! JXAXVXZX7 z z v ` 1 ~.1 ' { { ] q 0.a.U.SXFXT.c.B.U.P.K.[.[.m.>.<.8.8.u.d.q.i.i.u.h.a.b.b.K.K.h.",
"U.P.3.3.|.N p a i p - ; ; < < ` PXLXZXPXc z x x v * J - ' { { ] q L.U.xXUXUX'.j.d.g.d.q.m.2.r r >.7.<.8.,.-.y.y.8.B.h.p.j.a.s.p.",
"IXLXP.P.>X:Xk.<.-.+.: < < < < J ZXZXVXPXB z x x l , 0X> ' { ).` i R.].IXUXUXhXc.f.V.P.v.y.,.@.$.a.h.L.V.r.9.<.w.z.Q.P.x.K.x.j.c.",
"Q.gXz.f.k.C.1.#.#.X.@.%.p 2 f A CXVXrXZX7 z x x & - 6X> ' { { ] q B.b.cXUXUXP.,.r r r t q : $ u :.H D.S.D D i p H 9X9XD.eX7X=X7X",
"K.L.r.p.8.,.=.O.O.X.@.%.p 2 f A 9X8X*XVX< z x z o o L - ' { { ' $ 0.f.hXFXUXK.,.t 0 w 0 + o * : %.1.x.l.&.&.9 , K 6X*XK 8XL L L "
};
