/* XPM */
static char *result[] = {
/* columns rows colors chars-per-pixel */
"128 128 64 1 ",
"  c black",
". c #000301",
"X c #050104",
"o c #0B0701",
"O c #010C00",
"+ c #031002",
"@ c #021104",
"# c #031B00",
"$ c #051E03",
"% c #041F08",
"& c #191102",
"* c #010B11",
"= c #271A03",
"- c #042A00",
"; c #082C05",
": c #062D0C",
"> c #053900",
", c #0B3A06",
"< c #083B0F",
"1 c #352304",
"2 c #302F02",
"3 c #3F3E02",
"4 c #011520",
"5 c #021F2F",
"6 c #3D0730",
"7 c #03293E",
"8 c #5D0303",
"9 c #6C0404",
"0 c #7B0404",
"q c #432D05",
"w c #064800",
"e c #0D4808",
"r c #075700",
"t c #0F5609",
"y c #0A4813",
"u c #0C5517",
"i c #086600",
"p c #11640A",
"a c #097500",
"s c #6C6B04",
"d c #04334D",
"f c #053C5C",
"g c #590B46",
"h c #691048",
"j c #750F5C",
"k c #06456A",
"l c #074E79",
"z c #990505",
"x c #A80606",
"c c #B70606",
"v c #9B7B51",
"b c #0A8400",
"n c #0B9300",
"m c #A8A706",
"M c #B7B606",
"N c #C6C507",
"B c #F3F209",
"V c #085787",
"C c #096095",
"Z c #AD1788",
"A c #11C8EE",
"S c #CBB392",
"D c #CCB89D",
"F c white",
/* pixels */
"aarrwwOOOOOOOO-->>wwwwwwwwwwwwrrrrrrwwwwwwwwrrrrrrrrwwwwwwwwrrww>>--                                              ##rrbbnnnnnnnn",
"aarrwwOOOOOOOO-->>wwwwwwwwwwwwrrrrrrwwwwwwwwrrrrrrrrwwwwwwwwrrww>>--                                              ##rrbbnnnnnnnn",
"aarrwwOOOO          OO-->>wwwwrrrrrrwwwwwwwwrrww>>--OOOO    OOOO####                                  --wwrrrrrriiaabbnnbbaaiirr",
"aarrwwOOOO          OO-->>wwwwrrrrrrwwwwwwwwrrww>>--OOOO    OOOO####                                  --wwrrrrrriiaabbnnbbaaiirr",
"aarrwwOOOO            OOOO    OO                                                              oorrrrrrww>>--######-->>wwrrrrrrrr",
"aarrwwOOOO            OOOO    OO                                                              oorrrrrrww>>--######-->>wwrrrrrrrr",
"aarrww-->>wwwwwwwwwwwwrrww--##OOOO##OOOO    OOOO########OOOOOO  OOOOOO##                        OOOO####-->>wwrrwwwwwwwwrrww>>##",
"aarrww-->>wwwwwwwwwwwwrrww--##OOOO##OOOO    OOOO########OOOOOO  OOOOOO##                        OOOO####-->>wwrrwwwwwwwwrrww>>##",
"rr>>--ww>>>>--OOOO    OOOOOOOOOOOO##OOOO    OOOO########OOOOOOOO-->>wwrroo                      >>wwrrrrrrrrrrww--##OOOO######OO",
"rr>>--ww>>>>--OOOO    OOOOOOOOOOOO##OOOO    OOOO########OOOOOOOO-->>wwrroo                      >>wwrrrrrrrrrrww--##OOOO######OO",
"rr>>--ww>>wwwwwwrrww>>--##OOOOOOOO##OOOO    OO##>>wwrrrrrrrrrrwwwwwwwwrroo                      >>----##OOOOOOOOOOOOOOOO-->>wwww",
"rr>>--ww>>wwwwwwrrww>>--##OOOOOOOO##OOOO    OO##>>wwrrrrrrrrrrwwwwwwwwrroo                      >>----##OOOOOOOOOOOOOOOO-->>wwww",
"rr>>--ww>>wwwwwwrrwwwwwwwwrrrrrriiww>>>>--          rrwwwwwwwwrrrrrrwwww                            ##---->>wwwwrrrrrrrrrrrrrrww",
"rr>>--ww>>wwwwwwrrwwwwwwwwrrrrrriiww>>>>--          rrwwwwwwwwrrrrrrwwww                            ##---->>wwwwrrrrrrrrrrrrrrww",
"rr>>--ww>>wwwwwwrrwwwwwwrraabbnnnniiww>>  AAAAAAAA        wwwwrrrrrrwwww    oo                                  rrrrrrrrrriiaabb",
"rr>>--ww>>wwwwwwrrwwwwwwrraabbnnnniiww>>  AAAAAAAA        wwwwrrrrrrwwww    oo                                  rrrrrrrrrriiaabb",
"nnnnnnnnnnnnnnnnnnnnnnnnnnnnnnnnnniiww  AAAAAAAAAAAA  AAAA    rrrrrrwwwwwwwwrr                                  aabbnnnnnnnnnnnn",
"nnnnnnnnnnnnnnnnnnnnnnnnnnnnnnnnnniiww  AAAAAAAAAAAA  AAAA    rrrrrrwwwwwwwwrr                                  aabbnnnnnnnnnnnn",
"rr>>>>>>>>ww>>wwwwwwwwwwwwwwrrwwww##  AAAAAAAAAAAAAAAAAAAAAAAA  ####        ##    ZZ  ZZ  ZZ  ZZ  ZZ  ZZ  ZZ    rrrrrrrrrrrrrrrr",
"rr>>>>>>>>ww>>wwwwwwwwwwwwwwrrwwww##  AAAAAAAAAAAAAAAAAAAAAAAA  ####        ##    ZZ  ZZ  ZZ  ZZ  ZZ  ZZ  ZZ    rrrrrrrrrrrrrrrr",
"rr>>>>>>>>ww>>wwwwwwwwwwwwwwccxxxxxx  FFAAAAAAAAAAAAAAAAAAAAAAAA  rrwwwwwwwwrr    ZZ  ZZ  ZZ  ZZ  ZZ  ZZ  ZZ    rrrrrrrrrrrrrrrr",
"rr>>>>>>>>ww>>wwwwwwwwwwwwwwccxxxxxx  FFAAAAAAAAAAAAAAAAAAAAAAAA  rrwwwwwwwwrr    ZZ  ZZ  ZZ  ZZ  ZZ  ZZ  ZZ    rrrrrrrrrrrrrrrr",
"rr>>>>>>>>ww>>wwwwwwwwwwwwwwccxxxxxx  AAFFAAAAAAAAAAAAAAAAAAAAFF  rrwwwwwwwwrr    ZZZZZZ    ZZ  ZZ    ZZZZZZ    rrrrrrrrrrrrrrrr",
"rr>>>>>>>>ww>>wwwwwwwwwwwwwwccxxxxxx  AAFFAAAAAAAAAAAAAAAAAAAAFF  rrwwwwwwwwrr    ZZZZZZ    ZZ  ZZ    ZZZZZZ    rrrrrrrrrrrrrrrr",
">>            OOOOOOOO      9999ssss  AAAAAAAAAAAAAAAAvvAAAAFFAA    OOOOOOOO                                    ############OOOO",
">>            OOOOOOOO      9999ssss  AAAAAAAAAAAAAAAAvvAAAAFFAA    OOOOOOOO                                    ############OOOO",
"ww--##-->>wwwwrrrrrrrrwwwwwwxxccMMMM  AAAAAAAAAAvvvvvvDDvvvvAAAAAA  rrrrrr                                      rrrrrrrrrrrrwwww",
"ww--##-->>wwwwrrrrrrrrwwwwwwxxccMMMM  AAAAAAAAAAvvvvvvDDvvvvAAAAAA  rrrrrr                                      rrrrrrrrrrrrwwww",
">>            OOOOOOOO  OOOO88999999  AAAAAAAAAAvvDDDDDDDDDDvvAAAA  OO##        OO                                  ########    ",
">>            OOOOOOOO  OOOO88999999  AAAAAAAAAAvvDDDDDDDDDDvvAAAA  OO##        OO                                  ########    ",
">>            OOOOOOOO  OOOO88999999  AAAAAAAAvvDDDDDDDDDDDDvvAAAA  OO      ####OO                                  ########    ",
">>            OOOOOOOO  OOOO88999999  AAAAAAAAvvDDDDDDDDDDDDvvAAAA  OO      ####OO                                  ########    ",
"rr>>--ww>>wwwwwwwwww@@@@%%%%wwww@@@@  AAAAAAAAvv  DDDDDD  DDvvAAAA  ww  rrrrrrrrrrwwwwwwwwrroooooooooo        oooooooooooooowwww",
"rr>>--ww>>wwwwwwwwww@@@@%%%%wwww@@@@  AAAAAAAAvv  DDDDDD  DDvvAAAA  ww  rrrrrrrrrrwwwwwwwwrroooooooooo        oooooooooooooowwww",
"bbiirrww>>wwwwwwwwww@@@@%%%%wwww@@@@rr  AAAAAAvv  DDDDDD  DDvvAAAA  wwrrrrrrrrrrrrwwwwwwwwrroooooooooo        oooooooooooooowwww",
"bbiirrww>>wwwwwwwwww@@@@%%%%wwww@@@@rr  AAAAAAvv  DDDDDD  DDvvAAAA  wwrrrrrrrrrrrrwwwwwwwwrroooooooooo        oooooooooooooowwww",
"aaiiww>>>>>>wwwwwwwwwwww%%@@@@@@@@%%rr    AAAAvvAADDDDDDAADDDDAA  wwwwwwwwrrrrrrrrrrrriiaarrww>>          oooo        oo        ",
"aaiiww>>>>>>wwwwwwwwwwww%%@@@@@@@@%%rr    AAAAvvAADDDDDDAADDDDAA  wwwwwwwwrrrrrrrrrrrriiaarrww>>          oooo        oo        ",
"aaiiww>>>>>>wwwwwwwwwwww%%@@@@@@@@    AA  AA  DDDDDDDDDDDDDD    AA    wwwwrrrrrrrrrrrriiaarrww>>          oooo        oo        ",
"aaiiww>>>>>>wwwwwwwwwwww%%@@@@@@@@    AA  AA  DDDDDDDDDDDDDD    AA    wwwwrrrrrrrrrrrriiaarrww>>          oooo        oo        ",
"aaiiww>>>>>>wwwwwwwwwwwwrrww      AA    @@  ww              rrrr    AA      rrrrrrrrrriiaarrww>>-->>      oooo        oo        ",
"aaiiww>>>>>>wwwwwwwwwwwwrrww      AA    @@  ww              rrrr    AA      rrrrrrrrrriiaarrww>>-->>      oooo        oo        ",
"aaiiww>>>>>>wwwwwwwwww>>    AAAA              ##  vvvvvv  OO##OOOO      AAAA      OOOO##>>##OO              oo        oo        ",
"aaiiww>>>>>>wwwwwwwwww>>    AAAA              ##  vvvvvv  OO##OOOO      AAAA      OOOO##>>##OO              oo        oo        ",
"bbaaiiwwww>>zzzz>>>>ww  AAAA    ..@@@@..wwwwwwrr  SSvvvv  wwrrwwwwwwwwrr    AAAA  wwwwwwrrrrrrwwwwww  oooooooooo&&==11qqqqqqqqqq",
"bbaaiiwwww>>zzzz>>>>ww  AAAA    ..@@@@..wwwwwwrr  SSvvvv  wwrrwwwwwwwwrr    AAAA  wwwwwwrrrrrrwwwwww  oooooooooo&&==11qqqqqqqqqq",
"bbaaiiwwww>>zzzz>>>>          OO        --        SSSSvv        wwwwwwrrrr          wwwwrrrrrrwwwwww  oooooooooo&&==11qqqqqqqqqq",
"bbaaiiwwww>>zzzz>>>>          OO        --        SSSSvv        wwwwwwrrrr          wwwwrrrrrrwwwwww  oooooooooo&&==11qqqqqqqqqq",
"bbaaiiwwww>>>>>>>>    AAAA    OO          ZZZZvvvvSSSSSSvvvvZZZZ    wwrrrrww  AAAA    wwrrrrrrwwwwwwwwrrrrrroooo&&==11qqqqqqqqqq",
"bbaaiiwwww>>>>>>>>    AAAA    OO          ZZZZvvvvSSSSSSvvvvZZZZ    wwrrrrww  AAAA    wwrrrrrrwwwwwwwwrrrrrroooo&&==11qqqqqqqqqq",
"bbaaiiwwww>>>>>>  AA  AA  wwwwrr@@@@    ZZZZvvSSSSSSSSSSSSvvvvZZZZ    wwwwwwrr  AA  AA  wwrrrrrrrrwwww>>----            oooooo  ",
"bbaaiiwwww>>>>>>  AA  AA  wwwwrr@@@@    ZZZZvvSSSSSSSSSSSSvvvvZZZZ    wwwwwwrr  AA  AA  wwrrrrrrrrwwww>>----            oooooo  ",
">>---->>>>>>ww>>  AAAA  OO    OO      ZZZZvvSSSSSSSSSSSSSSSSvvvvZZZZ    wwwwrrrr  AAAA  wwrrrrrrrrwwwwwwwwrrrrrr        oooooo  ",
">>---->>>>>>ww>>  AAAA  OO    OO      ZZZZvvSSSSSSSSSSSSSSSSvvvvZZZZ    wwwwrrrr  AAAA  wwrrrrrrrrwwwwwwwwrrrrrr        oooooo  ",
">>---->>>>>>ww>>  AA    wwwwwwwwww  vvZZZZSSSSSSSSSSSSSSSSSSSSSSZZZZvv      OO--    AA  wwrrrrrrrrwwwwwwwwrrrrrr        oooooo  ",
">>---->>>>>>ww>>  AA    wwwwwwwwww  vvZZZZSSSSSSSSSSSSSSSSSSSSSSZZZZvv      OO--    AA  wwrrrrrrrrwwwwwwwwrrrrrr        oooooo  ",
">>---->>>>>>ww>>  AA  xxwwwwwwwwww  SSvvZZZZZZZZZZSSSSSSZZZZZZZZZZSSvv      OO####  AA    OO######        ######OO              ",
">>---->>>>>>ww>>  AA  xxwwwwwwwwww  SSvvZZZZZZZZZZSSSSSSZZZZZZZZZZSSvv      OO####  AA    OO######        ######OO              ",
">>---->>>>>>ww>>ww        wwwwwwww  SSvvZZZZZZZZZZvvSSSSZZZZZZZZZZSSvv  wwwwww        wwwwwwrrrrrrwwwwwwwwrrrrrrrrww      oooooo",
">>---->>>>>>ww>>ww        wwwwwwww  SSvvZZZZZZZZZZvvSSSSZZZZZZZZZZSSvv  wwwwww        wwwwwwrrrrrrwwwwwwwwrrrrrrrrww      oooooo",
"rr>>-->>>>>>>>wwww  AAAAAA  wwwwww  SSvvZZZZZZZZZZZZvvZZZZZZZZZZZZSSvv  wwww  AAAAAA  wwwwwwrrrrrrwwwwwwwwrrrrrrrrwwwwww  oooooo",
"rr>>-->>>>>>>>wwww  AAAAAA  wwwwww  SSvvZZZZZZZZZZZZvvZZZZZZZZZZZZSSvv  wwww  AAAAAA  wwwwwwrrrrrrwwwwwwwwrrrrrrrrwwwwww  oooooo",
"rr>>-->>>>>>>>wwwwww  AA  wwwwwwww  SSvvZZZZZZZZZZZZZZZZZZZZZZZZZZSSvv  nnnnnn  AA  wwwwwwwwrrrrrrwwwwwwwwrrrrrrrrwwwwww  oooooo",
"rr>>-->>>>>>>>wwwwww  AA  wwwwwwww  SSvvZZZZZZZZZZZZZZZZZZZZZZZZZZSSvv  nnnnnn  AA  wwwwwwwwrrrrrrwwwwwwwwrrrrrrrrwwwwww  oooooo",
"                            OOOO    SSvvZZZZZZZZZZZZZZZZZZZZZZZZZZSSvv      ####  >>wwiiaabbnnnnnnnnnnnnnnnnnnnnnnnnnnnnnnnnnnnn",
"                            OOOO    SSvvZZZZZZZZZZZZZZZZZZZZZZZZZZSSvv      ####  >>wwiiaabbnnnnnnnnnnnnnnnnnnnnnnnnnnnnnnnnnnnn",
"                            OOOO    SSvvZZZZZZZZZZZZZZZZZZZZZZZZZZSSvv      ##OOOOOOOO##OOOOOO  OOOOOO-->>>>wwwwwwrriiaabbnnnnnn",
"                            OOOO    SSvvZZZZZZZZZZZZZZZZZZZZZZZZZZSSvv      ##OOOOOOOO##OOOOOO  OOOOOO-->>>>wwwwwwrriiaabbnnnnnn",
"                wwwwwwwwxxxxrrrrww  SSvvZZZZZZZZZZZZZZZZZZZZZZZZZZSSvv          OOOOOO##        OOOOOO####OO      OO######OOOO  ",
"                wwwwwwwwxxxxrrrrww  SSvvZZZZZZZZZZZZZZZZZZZZZZZZZZSSvv          OOOOOO##        OOOOOO####OO      OO######OOOO  ",
"                        9900wwrrww  SSvvZZZZZZZZZZZZZZZZZZZZZZZZZZSSvv              OO##        OOOOOO####OO      OO######OOOO  ",
"                        9900wwrrww  SSvvZZZZZZZZZZZZZZZZZZZZZZZZZZSSvv              OO##        OOOOOO####OO      OO######OOOO  ",
"&&oo            wwww>>wwww>>wwwwww  SSvvZZZZZZZZZZZZZZZZZZZZZZZZZZSSvv  ..@@@@..--##OO      2233  OOOO####OO      OO######OOOO  ",
"&&oo            wwww>>wwww>>wwwwww  SSvvZZZZZZZZZZZZZZZZZZZZZZZZZZSSvv  ..@@@@..--##OO      2233  OOOO####OO      OO######OOOO  ",
"&&oo            wwww>>wwww>>wwwwww  SSvvZZZZZZZZZZZZZZZZZZZZZZZZZZSSvv  ..@@@@@@wwwwww>>@@@@mmMMwwww--##OO      ##--ww>>--OOOO  ",
"&&oo            wwww>>wwww>>wwwwww  SSvvZZZZZZZZZZZZZZZZZZZZZZZZZZSSvv  ..@@@@@@wwwwww>>@@@@mmMMwwww--##OO      ##--ww>>--OOOO  ",
"&&oo            wwww>>wwdd77wwwwww  SSSSvvZZZZZZ            ZZZZSSSSvv    ##  ..wwww@@..@@@@mmMMwwww-------->>>>ww>>-->>wwiinnnn",
"&&oo            wwww>>wwdd77wwwwww  SSSSvvZZZZZZ            ZZZZSSSSvv    ##  ..wwww@@..@@@@mmMMwwww-------->>>>ww>>-->>wwiinnnn",
"11==&&oooooo    wwrraabbVVkkrrwwwwrr  SSSSvvZZ  hhhhhhhhhhhh  SSSSvv  mmwwrr%%@@##OO    ..@@mmMMwwww-------->>>>ww>>-->>wwiinnnn",
"11==&&oooooo    wwrraabbVVkkrrwwwwrr  SSSSvvZZ  hhhhhhhhhhhh  SSSSvv  mmwwrr%%@@##OO    ..@@mmMMwwww-------->>>>ww>>-->>wwiinnnn",
"11==&&oooooo        ww>>>>wwddddwwrr  ZZSSSSvvhhhhhhhhhhhhhhSSSSvvZZZZ  wwrr%%%%wwww@@@@%%%%rrrrwwww-------->>>>ww>>-->>wwiinnnn",
"11==&&oooooo        ww>>>>wwddddwwrr  ZZSSSSvvhhhhhhhhhhhhhhSSSSvvZZZZ  wwrr%%%%wwww@@@@%%%%rrrrwwww-------->>>>ww>>-->>wwiinnnn",
"11==&&oooooo        ww>>>>wwddddww  ZZZZZZSSSSSShhhhhhhhhhSSSSvv  ZZZZZZ  rr%%%%wwww@@@@%%%%rrrrwwwwwwwwrriiaaaaaarr-->>wwiinnnn",
"11==&&oooooo        ww>>>>wwddddww  ZZZZZZSSSSSShhhhhhhhhhSSSSvv  ZZZZZZ  rr%%%%wwww@@@@%%%%rrrrwwwwwwwwrriiaaaaaarr-->>wwiinnnn",
"11==,,;;;;;;$$$$            wwww  ZZZZZZZZ  SSSShhhhhhhhhhSSvvhh  ZZZZZZZZ  <<::@@@@@@@@rrrrrrrrwwwwwwwwrrrrrrrrrrwwwwwwwwrrrrrr",
"11==,,;;;;;;$$$$            wwww  ZZZZZZZZ  SSSShhhhhhhhhhSSvvhh  ZZZZZZZZ  <<::@@@@@@@@rrrrrrrrwwwwwwwwrrrrrrrrrrwwwwwwwwrrrrrr",
"&&oo$$$$eettppppqq==&&      ww  ZZZZZZZZZZ  hhFFFFhhhhhhFFFFhhhh  ZZZZZZZZZZ  <<yyuuyy<<iirrrrrrwwwwwwwwrrrrrrrrrrwwwwwwwwrrrrrr",
"&&oo$$$$eettppppqq==&&      ww  ZZZZZZZZZZ  hhFFFFhhhhhhFFFFhhhh  ZZZZZZZZZZ  <<yyuuyy<<iirrrrrrwwwwwwwwrrrrrrrrrrwwwwwwwwrrrrrr",
"kkffdd55dd77++$$      oo&&11  ZZZZZZZZZZZZ  hhFF  hhhhhh  FFhhhh  ZZZZZZZZZZZZ  @@@@wwrraabbbbaarrwwwwwwrrrrrrrrrrwwwwwwwwrrrrrr",
"kkffdd55dd77++$$      oo&&11  ZZZZZZZZZZZZ  hhFF  hhhhhh  FFhhhh  ZZZZZZZZZZZZ  @@@@wwrraabbbbaarrwwwwwwrrrrrrrrrrwwwwwwwwrrrrrr",
"kkffdd55dd77++$$            ZZZZZZZZZZZZZZ  hhhhhhhh  hhhhhhhhhh  ZZZZZZZZZZZZZZ  @@wwwwrrrrwwwwwwrraabbnnbbaaiirrwwwwwwwwrrrrrr",
"kkffdd55dd77++$$            ZZZZZZZZZZZZZZ  hhhhhhhh  hhhhhhhhhh  ZZZZZZZZZZZZZZ  @@wwwwrrrrwwwwwwrraabbnnbbaaiirrwwwwwwwwrrrrrr",
"&&oodd55    ++$$$$$$      ZZZZZZZZZZZZZZZZ  hhhhhh      hhhhhhhh  ZZZZZZZZZZZZZZZZ  wwwwrrrrwwwwwwwwMMMMmmmmwwrraabbnnnnnnnnnnnn",
"&&oodd55    ++$$$$$$      ZZZZZZZZZZZZZZZZ  hhhhhh      hhhhhhhh  ZZZZZZZZZZZZZZZZ  wwwwrrrrwwwwwwwwMMMMmmmmwwrraabbnnnnnnnnnnnn",
"&&&&CCll&&  ++$$$$$$    ZZZZZZZZZZZZZZZZZZZZ  hhhhhhhhhhhhhhhh  ZZZZZZZZZZZZZZZZZZZZ  wwrrrrwwwwwwwwMMMMmmmmwwwwrrrrwwwwwwwwwwww",
"&&&&CCll&&  ++$$$$$$    ZZZZZZZZZZZZZZZZZZZZ  hhhhhhhhhhhhhhhh  ZZZZZZZZZZZZZZZZZZZZ  wwrrrrwwwwwwwwMMMMmmmmwwwwrrrrwwwwwwwwwwww",
"          oo&&11pppp  ZZZZZZZZZZZZZZZZZZZZZZZZ                ZZZZZZZZZZZZZZZZZZZZZZZZ  aaiiwwwwwwwwrrrrwwwwwwwwrrrrwwwwwwwwwwww",
"          oo&&11pppp  ZZZZZZZZZZZZZZZZZZZZZZZZ                ZZZZZZZZZZZZZZZZZZZZZZZZ  aaiiwwwwwwwwrrrrwwwwwwwwrrrrwwwwwwwwwwww",
"                $$  ZZZZZZZZZZZZZZZZZZZZZZZZZZZZZZZZZZZZZZZZZZZZZZZZZZZZZZZZZZZZZZZZZZZZ  wwrriibbbbaaiiwwwwwwwwrrrrwwwwwwwwwwww",
"                $$  ZZZZZZZZZZZZZZZZZZZZZZZZZZZZZZZZZZZZZZZZZZZZZZZZZZZZZZZZZZZZZZZZZZZZ  wwrriibbbbaaiiwwwwwwwwrrrrwwwwwwwwwwww",
">>##                ZZ  ZZ  ZZ  ZZ  ZZ  ZZ  ZZ  ZZ  ZZ  ZZ  ZZ  ZZ  ZZ  ZZ  ZZ  ZZ  ZZ  wwwwwwwwrrrriiaabbnnnnbbaaiiwwwwwwwwwwww",
">>##                ZZ  ZZ  ZZ  ZZ  ZZ  ZZ  ZZ  ZZ  ZZ  ZZ  ZZ  ZZ  ZZ  ZZ  ZZ  ZZ  ZZ  wwwwwwwwrrrriiaabbnnnnbbaaiiwwwwwwwwwwww",
"iiww                  oo$$$$    ;;;;      vvvvvvvv  ww  vvvvvvvv  aaNNMMrrwwwwwwwwrrrrrrwwwwwwwwrrrrrrrrwwwwwwwwiiaabbnnnnnnnnnn",
"iiww                  oo$$$$    ;;;;      vvvvvvvv  ww  vvvvvvvv  aaNNMMrrwwwwwwwwrrrrrrwwwwwwwwrrrrrrrrwwwwwwwwiiaabbnnnnnnnnnn",
"aarrww>>              oo$$$$$$$$;;;;      vvvvvvvv  ww  vvvvvvvv  wwwwwwrriiaabbnnbbaaiiwwwwwwwwrrrrrrrrwwwwwwwwrrrrrrrrwwwwwwww",
"aarrww>>              oo$$$$$$$$;;;;      vvvvvvvv  ww  vvvvvvvv  wwwwwwrriiaabbnnbbaaiiwwwwwwwwrrrrrrrrwwwwwwwwrrrrrrrrwwwwwwww",
"aarrww>>                $$$$;;,,,,,,      vvvvvvvv  ww  vvvvvvvv  wwwwwwrrrrrrrrrrwwwwwwwwrrww>>--####OO      OO##-->>wwwwwwwwww",
"aarrww>>                $$$$;;,,,,,,      vvvvvvvv  ww  vvvvvvvv  wwwwwwrrrrrrrrrrwwwwwwwwrrww>>--####OO      OO##-->>wwwwwwwwww",
"aarrww>>>>ww            $$$$$$;;oo        vvvvvvvv  ww  vvvvvvvv  wwwwwwrrrrrrrrrrwwwwwwwwrrrrrrrrrrww--OO    OO########OOOOOOOO",
"aarrww>>>>ww            $$$$$$;;oo        vvvvvvvv  ww  vvvvvvvv  wwwwwwrrrrrrrrrrwwwwwwwwrrrrrrrrrrww--OO    OO########OOOOOOOO",
"aarrww>>>>ww            $$$$$$;;oo        vvvvvvvv  ww  vvvvvvvv  wwwwwwrrrrrrrrrrwwwwwwwwrrrrrrrrrrrrwwwwwwwwrrww>>--##OOOOOOOO",
"aarrww>>>>ww            $$$$$$;;oo        vvvvvvvv  ww  vvvvvvvv  wwwwwwrrrrrrrrrrwwwwwwwwrrrrrrrrrrrrwwwwwwwwrrww>>--##OOOOOOOO",
"aarrwwrriiaaaarr              oooo        vvvvvvvv  ww  vvvvvvvv  wwwwrriiiiiiiirrwwwwwwwwrrMMMMrrrrrrwwwwwwwwrrrrrrrrrrrrrrrrrr",
"aarrwwrriiaaaarr              oooo        vvvvvvvv  ww  vvvvvvvv  wwwwrriiiiiiiirrwwwwwwwwrrMMMMrrrrrrwwwwwwwwrrrrrrrrrrrrrrrrrr",
"aarrwwww>>ww>>>>          oo&&&&&&        hhvvhhvv  ww  vvvvvvvv  wwwwrrrrrrrrrrwwwwwwrraabbBBBBnnnnnnnnnnnnnnnnnnbbaaiirrrrrrrr",
"aarrwwww>>ww>>>>          oo&&&&&&        hhvvhhvv  ww  vvvvvvvv  wwwwrrrrrrrrrrwwwwwwrraabbBBBBnnnnnnnnnnnnnnnnnnbbaaiirrrrrrrr",
"aarrdddd>>ww>>>>wwww        oooo    oo&&  hhhhhhjj      vvvvvvvv  wwwwrrrrrrrrrrwwwwwwwwMMMMrrrriiaabbnnnnnnnnnnnnnnnnnnnnnnnnnn",
"aarrdddd>>ww>>>>wwww        oooo    oo&&  hhhhhhjj      vvvvvvvv  wwwwrrrrrrrrrrwwwwwwwwMMMMrrrriiaabbnnnnnnnnnnnnnnnnnnnnnnnnnn",
"aarrdddd>>ww>>>>wwww        oooo          hhhhhhvv  qq  vvvvvvvv  wwwwrrrrrrrrrrwwwwwwwwMMMMrrrrrrrrwwwwwwwwrriiaabbnnnnnnnnnnnn",
"aarrdddd>>ww>>>>wwww        oooo          hhhhhhvv  qq  vvvvvvvv  wwwwrrrrrrrrrrwwwwwwwwMMMMrrrrrrrrwwwwwwwwrriiaabbnnnnnnnnnnnn",
"ww>>>>--44**                  oo          hhhhhhhh      vvvvvvvv  nnnnnnbbaaiirrwwwwwwwwrrrrrrrrrrrrwwwwwwwwrrrrrrrrrrwwwwwwrraa",
"ww>>>>--44**                  oo          hhhhhhhh      vvvvvvvv  nnnnnnbbaaiirrwwwwwwwwrrrrrrrrrrrrwwwwwwwwrrrrrrrrrrwwwwwwrraa",
"ww>>>>>>dddd>>wwww>>                      hhhhhhgg      vvvvvvvv  rrwwwwwwwwrriiaabbnnbbaaiirrrrrrrrwwwwwwwwrrrrrrrrrrwwwwwwwwrr",
"ww>>>>>>dddd>>wwww>>                      hhhhhhgg      vvvvvvvv  rrwwwwwwwwrriiaabbnnbbaaiirrrrrrrrwwwwwwwwrrrrrrrrrrwwwwwwwwrr",
"ww>>>>>>wwww>>wwww>>wwww  oooo            hhhhhh66      vvvvvvvv  OOOOOOOO  OOOOOO######        OO                              ",
"ww>>>>>>wwww>>wwww>>wwww  oooo            hhhhhh66      vvvvvvvv  OOOOOOOO  OOOOOO######        OO                              ",
"ww>>>>>>wwww>>wwww>>wwww  oooo            hhhhhhXX      vvvvvvvv  OOOOOOOO  OOOOOO######        ####OOOOOOOOOO                  ",
"ww>>>>>>wwww>>wwww>>wwww  oooo            hhhhhhXX      vvvvvvvv  OOOOOOOO  OOOOOO######        ####OOOOOOOOOO                  "
};
