/* XPM */
static char *result[] = {
/* columns rows colors chars-per-pixel */
"64 64 79 1 ",
"  c black",
". c #020203",
"X c gray3",
"o c #09090C",
"O c #0F0F10",
"+ c #0E0E15",
"@ c #101010",
"# c #101015",
"$ c #171718",
"% c #16161E",
"& c #17171E",
"* c #181818",
"= c #1E1E20",
"- c #1F1F20",
"; c #202020",
": c #242428",
"> c #252528",
", c #272728",
"< c #282828",
"1 c #222330",
"2 c #2B2B30",
"3 c #2E2E30",
"4 c #2F2F30",
"5 c #282839",
"6 c #282939",
"7 c #333338",
"8 c #353538",
"9 c #373738",
"0 c gray22",
"q c #2E2E42",
"w c #2E2F42",
"e c #3A3A40",
"r c #3C3C40",
"t c #3F3F40",
"y c #34344B",
"u c #34364B",
"i c #34374B",
"p c #3A3B54",
"a c #3A3C54",
"s c gray25",
"d c #434348",
"f c #484848",
"g c #4A4A50",
"h c #40435D",
"j c #515158",
"k c #464A66",
"l c #4C4F6F",
"z c #4C516F",
"x c #4C546F",
"c c #4C566F",
"v c #585860",
"b c #5F5F68",
"n c #525778",
"m c #525878",
"M c #666670",
"N c #6D6D78",
"B c #585F81",
"V c #5E668A",
"C c #747480",
"Z c #797988",
"A c #7B7B88",
"S c #646D93",
"D c #647093",
"F c #6C759B",
"G c #757EA1",
"H c #7E86A7",
"J c #83838F",
"K c #8B8B96",
"L c #93939D",
"P c #878FAD",
"I c #909BA9",
"U c #9097B3",
"Y c #99A0B9",
"T c #A3A3AB",
"R c #ABABB2",
"E c #ABB0C5",
"W c #B4B8CB",
"Q c #BDC1D1",
"! c #C6C9D7",
/* pixels */
"XXee****>>44,,44,,449944449999,,9944tt99>>44,,4444449999997722ss",
"XXee****>>44,,44,,449944449999,,9944tt99>>44,,4444449999997722ss",
"ZZ            ....        XX@@XXoo        @@XX  **@@<<  oo    ff",
"ZZ            ....        XX@@XXoo        @@XX  **@@<<  oo    ff",
"<<oo                                                      ##  00",
"<<oo                                                      ##  00",
"**XXXX                              @@**@@XX@@XXXX55XX@@..%%&&<<",
"**XXXX                              @@**@@XX@@XXXX55XX@@..%%&&<<",
"@@                    XX  XXXX    XX                    @@XX::<<",
"@@                    XX  XXXX    XX                    @@XX::<<",
"++    XX      XX;;XX@@XXXX@@XX@@XXXXXX@@XXXXXX@@XXXX          **",
"++    XX      XX;;XX@@XXXX@@XX@@XXXXXX@@XXXXXX@@XXXX          **",
"qq,,xx--ww%%ii--88  jjOOrrllcc33$$jjvvrr,,rruu,,OOgg,,--$$$$,,==",
"qq,,xx--ww%%ii--88  jjOOrrllcc33$$jjvvrr,,rruu,,OOgg,,--$$$$,,==",
"yyrrvvkkkkkkbbjjSSBBvvjjVVBBddggddVVggddggggjjddBBmmggddzzmmWWMM",
"yyrrvvkkkkkkbbjjSSBBvvjjVVBBddggddVVggddggggjjddBBmmggddzzmmWWMM",
"uuggMMNNbbvvJJNNbbjjvvSSPPNNLLPPLLAAJJLLRRMMGGHHFFCCNNEESSFFHHDD",
"uuggMMNNbbvvJJNNbbjjvvSSPPNNLLPPLLAAJJLLRRMMGGHHFFCCNNEESSFFHHDD",
"88CCFFSSKKTTUUAANNCCJJAANNLLPPPPGGUUHHMMSSFFHHbbvvbbVVvvSSSSbbdd",
"88CCFFSSKKTTUUAANNCCJJAANNLLPPPPGGUUHHMMSSFFHHbbvvbbVVvvSSSSbbdd",
"11MMbbMMAAHHGGMMMMbbHHSSbbNNbbGGbbvvvvbbNNMMbbbbYYFFPPCCCCAAMMpp",
"11MMbbMMAAHHGGMMMMbbHHSSbbNNbbGGbbvvvvbbNNMMbbbbYYFFPPCCCCAAMMpp",
"IIAACCNNMMPPFFbbGGvvGGvvjjFFSSMMMMFFVVbbFFSSVVggjjggggSSMMSSvv88",
"IIAACCNNMMPPFFbbGGvvGGvvjjFFSSMMMMFFVVbbFFSSVVggjjggggSSMMSSvv88",
"33bbbbFFggBBggddggggddjjSSVVggvvvvGGFFjjSSvvMMHHPPHHNNbbHHHHQQuu",
"33bbbbFFggBBggddggggddjjSSVVggvvvvGGFFjjSSvvMMHHPPHHNNbbHHHHQQuu",
"vvvvjjmmbbHHMMHHFFGGvvGGSSvvvvSSvvPPGGbbvvvvSSSSBBjjddddBBBBbb--",
"vvvvjjmmbbHHMMHHFFGGvvGGSSvvvvSSvvPPGGbbvvvvSSSSBBjjddddBBBBbb--",
"  MMJJJJbbvvjjSSVVSSvvMMbbMMGGVVbbjjggvvbbVVFFSSjjbbSSVVjjbbbbnn",
"  MMJJJJbbvvjjSSVVSSvvMMbbMMGGVVbbjjggvvbbVVFFSSjjbbSSVVjjbbbbnn",
"  ggBBmmrrddmmggBBVVddddrrmmmmjjrrggVVBBggvvBBggddmmrrddrrggjjmm",
"  ggBBmmrrddmmggBBVVddddrrmmmmjjrrggVVBBggvvBBggddmmrrddrrggjjmm",
"jjbb33ddmmrr888888rrddmmddBBgghhSSBBddmmhh333333hh33rrddddddrrrr",
"jjbb33ddmmrr888888rrddmmddBBgghhSSBBddmmhh333333hh33rrddddddrrrr",
"XXJJSSjjSSggBBvvBBVVBBddvvrrggmmBBVVjjCCMMjjbbGGvvvvvvSSVVGGUUkk",
"XXJJSSjjSSggBBvvBBVVBBddvvrrggmmBBVVjjCCMMjjbbGGvvvvvvSSVVGGUUkk",
"88!!FFbbNNAAvvbbNNFFYYMMHHMMCCMMMMjjjjSSjjMMNNbbMMSSvvVVSSrrrr$$",
"88!!FFbbNNAAvvbbNNFFYYMMHHMMCCMMMMjjjjSSjjMMNNbbMMSSvvVVSSrrrr$$",
"OOmmggddrrggjjjjggggddggkkrrbbggmmmmvvjjvvjjggggddmmrrBBrrddmmaa",
"OOmmggddrrggjjjjggggddggkkrrbbggmmmmvvjjvvjjggggddmmrrBBrrddmmaa",
"wwddddjjjjjjggddggddrrvvggBBBBddBBjjggBBmmzzddjjvvBBddddrrzzzz66",
"wwddddjjjjjjggddggddrrvvggBBBBddBBjjggBBmmzzddjjvvBBddddrrzzzz66",
"$$88ggSSBB88hhmmFFzzvvddgg88jjMMvvrrggrrddggbbgg88ggjj33ggrrgg  ",
"$$88ggSSBB88hhmmFFzzvvddgg88jjMMvvrrggrrddggbbgg88ggjj33ggrrgg  ",
"--mmjj88rrSSFFSSBBbbddggNNbbHHAAHHPPGGSSGGHHVVbbbbbbggggvvzzmmuu",
"--mmjj88rrSSFFSSBBbbddggNNbbHHAAHHPPGGSSGGHHVVbbbbbbggggvvzzmmuu",
"ggVVvvMMbbvvGGSSbbggjjSSSSddNNjjvvVVVVzzzzbbggVVbbVVVVvvBBmmggaa",
"ggVVvvMMbbvvGGSSbbggjjSSSSddNNjjvvVVVVzzzzbbggVVbbVVVVvvBBmmggaa",
"33ggNNVVvvjjvvddggvvVVggjjFFjjggMMrrddvvggzzzzmmrrzzBBVVddddjj--",
"33ggNNVVvvjjvvddggvvVVggjjFFjjggMMrrddvvggzzzzmmrrzzBBVVddddjj--",
"zzvvSSBBNNMMFFCCPPPPggbb88rrkkkkjj88rr88ddmmBBmmjjdd3333hhhhhh  ",
"zzvvSSBBNNMMFFCCPPPPggbb88rrkkkkjj88rr88ddmmBBmmjjdd3333hhhhhh  ",
"33ddzzmmjjjjbbMMSSJJNNMMMMJJFFGGAAvvbbvvMMddddrrrrddrrrrrrBBzzuu",
"33ddzzmmjjjjbbMMSSJJNNMMMMJJFFGGAAvvbbvvMMddddrrrrddrrrrrrBBzzuu",
"88SSVVggSSSSMMjjMMVVBBvvjjMMVVddkkkkvvddggBBVVmmggggggjjddjjgg,,",
"88SSVVggSSSSMMjjMMVVBBvvjjMMVVddkkkkvvddggBBVVmmggggggjjddjjgg,,",
"33BBbbjjNNjjvvbbSSGGSSAAbbCCbbbbGGbbjjvvjjBBSSjjggzzrrzzrrddmm11",
"33BBbbjjNNjjvvbbSSGGSSAAbbCCbbbbGGbbjjvvjjBBSSjjggzzrrzzrrddmm11",
"hhbbggvvjjrrggmmmmmmddmmbbrr88kkkkrrkkkk88zzkk88rr8888kkrrggrroo",
"hhbbggvvjjrrggmmmmmmddmmbbrr88kkkkrrkkkk88zzkk88rr8888kkrrggrroo",
"$$vvddddzzFFddddSSmmggmmrrgghhhhzzddddrrddddrrmmmmrrggrr88zzkk  ",
"$$vvddddzzFFddddSSmmggmmrrgghhhhzzddddrrddddrrmmmmrrggrr88zzkk  ",
"  66kkwwaa%%wwOOrrXX$$wwzzkk8888rrddggBBVVmmkk8833,,uuOOOO$$11  ",
"  66kkwwaa%%wwOOrrXX$$wwzzkk8888rrddggBBVVmmkk8833,,uuOOOO$$11  "
};
