/* XPM */
static char *result[] = {
/* columns rows colors chars-per-pixel */
"64 64 255 2 ",
"   c #000100",
".  c #0A0601",
"X  c #010B00",
"o  c #0B0902",
"O  c #06070B",
"+  c #120C05",
"@  c #011400",
"#  c #0A1301",
"$  c #021C01",
"%  c #0A1B05",
"&  c #041D09",
"*  c #141605",
"=  c #181102",
"-  c #121517",
";  c #281706",
":  c #251E1B",
">  c #032301",
",  c #042A01",
"<  c #082408",
"1  c #1B2500",
"2  c #043500",
"3  c #053A00",
"4  c #093905",
"5  c #0B2510",
"6  c #37280A",
"7  c #322B17",
"8  c #021824",
"9  c #280728",
"0  c #271A26",
"q  c #380D37",
"w  c #3B163A",
"e  c #022939",
"r  c #322D2D",
"t  c #3A3638",
"y  c #690303",
"u  c #730D04",
"i  c #443109",
"p  c #5D2117",
"a  c #48303A",
"s  c #064600",
"d  c #0B4502",
"f  c #054900",
"g  c #0B4902",
"h  c #094709",
"j  c #065500",
"k  c #0C5502",
"l  c #065A00",
"z  c #0B5C01",
"x  c #0D5609",
"c  c #125606",
"v  c #0F5015",
"b  c #294600",
"n  c #255200",
"m  c #2B5300",
"M  c #325501",
"N  c #285819",
"B  c #066600",
"V  c #077700",
"C  c #107508",
"Z  c #3A640B",
"A  c #294629",
"S  c #2A5728",
"D  c #30592D",
"F  c #3A4639",
"G  c #365935",
"H  c #306F2C",
"J  c #3B6539",
"K  c #636003",
"L  c #44503B",
"P  c #04324B",
"I  c #0A354A",
"U  c #053A55",
"Y  c #2C3455",
"T  c #471346",
"R  c #561855",
"E  c #601E5F",
"W  c #462A46",
"Q  c #493748",
"!  c #582C52",
"~  c #683155",
"^  c #6A1A69",
"/  c #6D2C6B",
"(  c #7A2679",
")  c #2A5D62",
"_  c #4F504E",
"`  c #644B53",
"'  c #477945",
"]  c #516C52",
"[  c #5A7958",
"{  c #61605F",
"}  c #6A4F67",
"|  c #6E6C6E",
" . c #970D05",
".. c #A30406",
"X. c #BC0A06",
"o. c #AA1706",
"O. c #AA2506",
"+. c #A8783E",
"@. c #801D7E",
"#. c #80267F",
"$. c #935D57",
"%. c #058600",
"&. c #0A8D00",
"*. c #0B9100",
"=. c #009800",
"-. c #129107",
";. c #23851F",
":. c #00A400",
">. c #14AE0A",
",. c #2B8F28",
"<. c #2B9B27",
"1. c #388A36",
"2. c #389435",
"3. c #32A82E",
"4. c #499535",
"5. c #4CAE3B",
"6. c #33C62E",
"7. c #3D8743",
"8. c #488946",
"9. c #489B46",
"0. c #5C8A5A",
"q. c #5A9A58",
"w. c #609D5F",
"e. c #48A645",
"r. c #56A754",
"t. c #62A959",
"y. c #638962",
"u. c #57D355",
"i. c #AF8E0D",
"p. c #BE8A37",
"a. c #D39718",
"s. c #CC9233",
"d. c #D69D36",
"f. c #D9A03D",
"g. c #E4E51C",
"h. c #B68347",
"j. c #D19747",
"k. c #D8A447",
"l. c #DBA952",
"z. c #DBB05F",
"x. c #E0B05C",
"c. c #DDB368",
"v. c #E2B767",
"b. c #E2BC78",
"n. c #E7C17D",
"m. c #53649F",
"M. c #8A1B88",
"N. c #882987",
"B. c #922E8E",
"V. c #893788",
"C. c #942C93",
"Z. c #9B2B9A",
"A. c #983595",
"S. c #9D329C",
"D. c #A1359F",
"F. c #A42DA3",
"G. c #AB2CA9",
"H. c #A433A3",
"J. c #A839A6",
"K. c #AC33AB",
"L. c #B137AD",
"P. c #B52FB4",
"I. c #B433B3",
"U. c #B936B7",
"Y. c #B53AB4",
"T. c #BB34BA",
"R. c #BD3BBC",
"E. c #C03ABF",
"W. c #8C4A8C",
"Q. c #A2599A",
"!. c #956692",
"~. c #A0719E",
"^. c #A647A5",
"/. c #B948B7",
"(. c #BD44BC",
"). c #B854B7",
"_. c #A878A5",
"`. c #B864B7",
"'. c #C049BF",
"]. c #C558BD",
"[. c #C02FC0",
"{. c #C43CC3",
"}. c #C639C5",
"|. c #C444C3",
" X c #C745C7",
".X c #C44AC3",
"XX c #C84DC7",
"oX c #CA43C9",
"OX c #CC4CCB",
"+X c #D04DCF",
"@X c #C553C4",
"#X c #C857C6",
"$X c #C45BC3",
"%X c #CC54CB",
"&X c #CC5CCB",
"*X c #D056CF",
"=X c #D05CCE",
"-X c #D154D0",
";X c #D15CD0",
":X c #C669C5",
">X c #CC63CB",
",X c #CD6BCC",
"<X c #D167CE",
"1X c #CD73CC",
"2X c #CB79CB",
"3X c #D371CE",
"4X c #D263D1",
"5X c #D36CD2",
"6X c #D86FD7",
"7X c #D574D4",
"8X c #D57BD4",
"9X c #D87BD7",
"0X c #D97DD9",
"qX c #858285",
"wX c #B38BB0",
"eX c #BC95B8",
"rX c #C198BE",
"tX c #C0A0BD",
"yX c #E8C990",
"uX c #ECD4AA",
"iX c #CE86CE",
"pX c #C59EC2",
"aX c #D486D4",
"sX c #DA83DA",
"dX c #DB8CDB",
"fX c #D892D7",
"gX c #DD93DD",
"hX c #DD9ADC",
"jX c #E099DE",
"kX c #C8A7C6",
"lX c #D2AFCF",
"zX c #CDB4CA",
"xX c #D2B7CE",
"cX c #D4B5D1",
"vX c #D5BDD2",
"bX c #D9BCD6",
"nX c #E199E1",
"mX c #E3A3E3",
"MX c #E6ACE5",
"NX c #E9B5E9",
"BX c #EABCEA",
"VX c #DBC5D8",
"CX c #E1CADE",
"ZX c #E2D5DF",
"AX c #F4E4CB",
"SX c #E9C9E8",
"DX c #F0CCEF",
"FX c #E8D8E5",
"GX c #F0CDF0",
"HX c #F2D7F2",
"JX c #EDE4EB",
"KX c #F2E8EB",
"LX c #F7E9F7",
"PX c #FBF4FB",
"IX c #FBF9FA",
/* pixels */
"j f 3 3 f f f g f f f j l l j g f f f j j j j j j g f f f l j j l j # . + + . . . . o + . # k l j j k l j l j j j j j f f f f j ",
"j f 3 3 f f s s f f f j j j j g f f f j j l l k j g f f f j l j l k % #                 . # j j j l l j k l j z j l j f f g f j ",
"j f 3 3 s g f f f s s j j l j f f g g j j l j l j f f f g j j j j l j x 6 7 6 6 7 6 i r + . # % j j j k j j j j z j j g f g f j ",
"j g 3 3 s s f f f f g j j j j f f f f k l k j j j f f g g j l j j c j M k.z.z.k.f.k.n.yXt   + o k l j l l l j j j j l g f f f j ",
"B j f 3 f f 3 f f f j j g f f g j j j l j l j f f f f j j l j z j x j Z v.b.b.v.x.b.yXuXa   + # j j j j j j f s d f j j j j j j ",
"B l g 3 f f 3 g f g k l f f f f z l j j j j l g g s g l l j j j j x j M n.yXyXAXLXuXyXv.6   + # j g 3 , , , $ $ @ @ $ $ $ , , > ",
"B j f 3 s s 2 s f f l j f d f f k k l z k j j s f s f j j j j z x c S G b.yXyXAXLXyXx.z.L r ; = = $ j j j j s f s 2 f f d j j j ",
"k g f f f j f f j f l l f j d f z z B z l l l j f j f f j l z B V S wXeXj.k.p.j.c.j.i.k.xXzXt . ; * k c k c g f f s f f g l l l ",
"s s l B &.&.&.&.&.&.*.&.&.*.%.%.&.=.=.=.&.&.*.&.&.&.&.%.%.&.-.>.3.e.zXxXh.d.a.p.b.s.i.k.FXZX` i i i 6 i i i &.*.*.%.%.%.%.&.&.&.",
"g 3 2 s f j l f j f f l l z b m b m Z M l l l l l j f 3 d x l H zXzXFXZX+.a.s.l.b.f.a.k.bXbXrXwXa + ; 6 6 i -.*.&.*.*.*.-.-.*.*.",
"f 2 > 2 f f j s d f s j j n  .......X.o.m j j j j d d 2 2 x f J VXCXVXVXp.a.d.l.yXk.d.l.VXVXVXvXr   + + + * l l l z l j l k z l ",
"2 @ X X X X $ X X X X @ $ * y y y y y u 1 > $ @ @ X X @ X &   F KXLXdXaX+.a.d.k.b.d.a.s.,XhXFXZXt   O       $ $ $ $ $ $ @ @ X X ",
"l 2 X X     X X @ X X @ @ 1 y u K K p u 1 $ > @ @ X X @ $ 5 X L KXLXmXhX+.s.j.k.c.j.d.h.4XnXVXvXt   O           > $ > $ @ @ @ @ ",
"2 X       X > 2 j s d d s n X.O.i.i.O. .n j k s s s s j f x f J ZXJXMXsXA.XX&X4XnX6X3X6XdXnXFXVXt   + . . . . # f j j j d s s s ",
", X     X X @ @ $ @ @ $ > 1  .u p p y y 1 > , $ $ $ $ $ $ & X F ZXFXMXgX@X9X5X5XnXnXBXBXnXdXSXVXt   O           @ @ , > @ $ @ $ ",
"j f , $ s f j f s f s k j m o....... .O.n j j f j j j f s h s J VXFXfXSXBXsX7X7XMXMXMXGXDXgXFXCXa   + . . . . . . # f s s 3 f j ",
"j g , > f f j s f d $ < > < m M ; ; b b k j < < < > j f f h s G VXFX5XgXfXS.{.0XGXNX%XgXLXBXJXJXF   - . . . . . . o # @ X @ f j ",
"j 3 , f f 3 , $ @ $ X X     > >     @ @ $ >     X X $ @ @ # $ r zXFX4XoXE.C.XXBXIXMXOXnXHXMXFXFXt   O                       @ $ ",
"j 3 , f f f s s s j j j < & & & o @ d d & & & > j j f d d h j D kXSX4X}.OXE.%XmXIXMX7XHXGXdXJXJXa   +         . o o . . o . . . ",
"l 3 , g f g d g g j j j , < < < # & s s > < < < j j f f s h j D zXKXnXOX&XoXP.@XHXLXhXHXMX9XFXFXL O +         . . . o . . . . . ",
"j 3 , s f g s f f j j j j j j f & @ @ & & < j j j j f f f h j S tXIXMX<XdX5X%X/.HXPXHXPX0XaXJXJX4.j +         . . . . . . . . o ",
"B g 3 3 3 s b m l j l l j f f f @ & & & < , j j g g f f l j j S wXVX>X/.nXgXsX8XLXHXNXMX;XsXIXIXe.j - . .         . o . o . . . ",
"B s 2 2 2 b o.o.M j k j j s f s @ & & > f j j j s s s s j x j S eXVXXXH.7XsX6X9XLXLXBXnX%X9XIXIXe.j + . .                       ",
"> X X X X o y y = $ @ @ $ @ X X         $ @ @ & @ @ X @ $ < @ 0 eXSX&X[.&X(.|.5XBXGXGXMXOX1XIXPXJ & O                           ",
"@             o @ @ @ @ $ $ X X X   > $ @ X @ $ $ $ @ $ > & @ 0 _.kX>X;X5X8XNXHXPXPXHXmX6X;XFXFXJ $ < > $ @                     ",
"X             @ > 3 d d j j f 3 X @ f f s f f j j f c k j x s A ~.eX%X7XdXdXGXPXPXIXLXMXsX&XvXVX2.j c j j s .     . . . o . . . ",
"@ X X X X X X @ @ $ @ @ $ $ $ $ $ @ , $ @ @ @ $ , 1 u  .1 , < 0 _.tX&X%XY.B.#X9XsXLXIXNXnX&XbXvXJ > % $ > $ @ @         . .     ",
"j s 2 2 s s s j j k b b d f j j j j j j g s s d l n o.o.n j j v !.eX4X@X( ^ G.}.{.nXHXGXNX7XbXvX2.f h f j j j j % # o o o .     ",
"j s 3 3 g g g j j n  .O.b f k j j j k j s s f f j l M m k j l N W.eX;X[.I.K.Y.L.H.sXDXGXMX>XbXvX2.s h f j j j j j j o . o .     ",
"3 , @ 3 f f f 3 , 1 u y # @ $ > > > , $ @ @ @ $ , > > > $ % & : ~.kX#XG. X%X{.:X&XNXPXDXNX3XcXzXF X @ @ , > > > > > @ X         ",
"3 , @ 2 f s s f f f k f f s s j j j j s d s s j j j k d f d s v !.tX(.K.>XY.H.8X;XmXPXDXSXBXcXzX1.f h d j k j k j j j s X     . ",
"3 > @ 2 f f s g f f j f s d g l l l j s f s b m j l j s f s f N !.pX/.U.&X/ R &XoX6XDXMXMXBXbXcX2.f h s j l j j j j j d X     . ",
"X   @ 2 s f f f f g j f f f f j j j j g f b o.o.m l j g f f f S ~.kX.XK..X( E R.%X0XBXDXnXDXVXxX2.f h f j l j j j l j 3 , > $ $ ",
"+ X 2 2 2 s s s f f f j n b f f g j l j l n o. .b f k j j j l S wXkX.XF.L.H.Z.F.{.7XmXSX9X5XbXvX3.l x j j j g f f g j j l j j j ",
"=   X X X X X @ f s f m o.o.b s g l l j l j b b f f j l l x j S _.kX(.Z.C.( N.H.K.4XGXBXMXNXbXVX3.B x l j j f f f f j j z l j k ",
"=             X s g f n o.o.b f g j j j l j f s f f j j l x j D wXeX|.G.C.N.^ H.}.4XBXdX9XsXcXzX2.V x j j j f f f g j l l l l l ",
"=             X s f f k n n f f g j l j j j g g f f l j l x j D pXeX|.}.F.S.N.T.OXOX9XsX7X.XzXzX2.%.x z l j f f f g j B V %.&.&.",
"= .           X g j l f h h h j l j l j g f f f j j j l j x j G kXeX|.}.H.H.C.R.T.@XMXNXdX.XbXxX3.=.x j z f f f f j j l k l l g ",
"= .           X f l j h P I h l l j j j f f f f j l x c x l j A tXeX.X}.H.Y.I.|.R.J.hXNX0X%XbXVX3.=.l j x f h h g x x l j j l g ",
"= .           X f j j h P P v x j k l j f f f h k j l l l S S L eXeX|.I.( P. X8X7X).mXnX>X.XcXvXr.2.J l j f f f f j j l j l j g ",
"= .             X % j f h h U U v l j j f f h f j S G D J J.P./.kXeX%XN.q N.K.5X0XhXPXmX{./.cXbX8XnX,X' D A A A A G D x j l j f ",
"+             o   X s s j v U U h f f f k z j N G Y.E.XXR.U.P.^.eXpX=XG.9 t ( @XOX5XPXmXT.%XcXcX5XgX9XaX.XK.{.Y.*X>X'.G j x l j ",
".   X   $ $ % ,     X X @ % v x f f f g x l G H.Y.%XoX>X(.U.I.D.eXrX=X XE R B.,XK.).IX,XF.5XcXcX5XdX4XsX4XOX6X8X1X>X$XG l x j j ",
"O O #   & 5 > < X       . o j j f s d h l L I.oX;X6X%X$X{ .XG.J.eXrX&XY.E C. X,X@.W.GX$XM.1XcXlX9X7X;XgX7X*X;XaXw.9.<.-.-.C x x ",
"U P P 8 P P & > X       . . # # > < & > F R.XX,X1X5X@X[ /.K.H.S._._.XXF.^ J. XJ.w V.MX^.^ 1XbXbX4XoX{.#X8X:X&X2XhX:X9.:.=.=.V B ",
"U U P P P P 5 $ o         . . + 5 , < t E.XX] 8.e.q./.,.' .XI.S._._.&X#XS.H.I.( 0 J.7XV.( &XbXbX7X[.J.] 4.4.e.r.aXsXiXr.2.2.2.1.",
"r 8 P P O   % $ , %       O o X , r ) R.;X8Xm.1X$X(.'.8.,.5XR.J.rXrX9XdX/.F.R.( / .X(.N.C.>XbXbX7XY.E.].g.g.Q.A.|.OX;XhX8X>XfX,X",
"; O P P O   & > , % X     X   : Q Y.XX*X;X5X X XOXU.oX:Xe.iX,X^.kXkX&X6XE.K.E.F.S.@XOX%X5XsXbXbX3X{ E.%Xg.g.4.' '.T.E. X4X0X5X6X",
"; O O O       X < $ $ % 5 0 T L.XX*X*X-X4X'.F.K.<X:XsX8X9.8.A.( lXkX&X7XV.( ,XOXE.I.B..X7XsXcXcXXX|.}.#Xt.5.:.3.8XE.P.E.OX X#X8X",
"# X             > $ $ @ : C.H.R.OX#X#X X'.7.m.}.<Xq.9.,X1XV.N.( zXkX7XdX/ / 8X=X X>XA.C.Y..XzXcX<X7X(.#X:X`.9.e.&X4XOXOX4X=X_ S ",
"j s X               O 9 r Q W ~ $X_ W T W Q /.:XaX`.%.[ 8XS.C.^.kXkX7X5XY.( D. X%XnX5X%XoX.XxXVXsXnX'.' H [ :X7XOX6XjX=XOX}.'.L ",
"j s X           O   9 B.Z.L.P. XXXL K.I.P./.q.r.r.8.] iX(.Z.Z.J.kXkX7XE.C./ W S.>X4XOXOX}.>XVXSXgXmX$X-.H /._ .X}.=XgX9XoX}.4X#X",
"j s , >             O 9 t `  XoX{.t F.}.[.$.1X8X)./.|.oXK.N.H.K..XXX|.` 0 w #.S.5X4XR.S.C.>XFXFXdXsX&Xe.1.$X_ S.{.;X=X>XOX*X;XOX",
"4 2 f 2 @ X   .   O   9 P. XOX}.{.Q K.%X-XXX&XoXG._ |.%XR.N.I.A.} L.S._ - q R C.:X( w R M.&XbXVX5X3X#X2X9.#X|.T.T.XXOX XOX,X,XoX",
"2 2 f 3 f s X .   . X w (.XX|.{.E.I./ >X4X5X&XE.P.a H /.T.B.F.( | { } G.T w 0 R A.} t V.J.>XbXcX.X] ] $X9.:X-X#X$X[ &XI.T.4.q.@X",
"2 , s 3 f s X # X O X 5 H S A t Q ~ $X4X'.E I.R U.:Xr./.P.B./ V.| } A.I.( ( 0 w E.>X7X7XlXcXVXFX>X&XOX|.;.8.:X9.;.1.&XP./.] `.9.",
"3 , f 3 f g f j - 9 W W a a w Q iX5X4X4X! q R.T (.4X/.F.Z.Z.} 6.qXY.(.N.#.V.#.W.,X0XsX0XFXJXCXFXw.:XaX'.7.H 8.<.=.2.>X@Xy.).y.;.",
"g , $ 2 4 h h v , r /.R.E.E.(.&X%X|.}.Y.F.Z.J.T W I.F.N.N.M.Q.u.).} Q E ~.eXrXzXPXJXvX_.wXZX8XaX3.6.t.&XXX.X X'.9.<.&X+X&X>X#XXX",
"f , 8 e 2 f l B %.1.Q ~ ~ ! / &X}.T q q F.K.{.'.! {.Y.R.N.F.R.W.| _ C.L._.kXlXvXIXFXvXpXeXCXnX>Xe.>.2X;X;X+XOX+X:X[ .X=X#X;X;X.X",
"f , 8 Y t A J H 8.$X}.|.'..X(.|.I.T H.R I.T.D.Y.{.R.Y.C.S..XE.M./.Q ( K.N.^..X>XdX,X&X0XdXhXfX%X$Xw.5X;X&XXX4X4X;X.X XXX[ XX>X[ ",
"s , 0 C.F.I.'.@X@XXX{.{.>X|.E w T Z.G.T.U.}.R.:XU.Z.C.R N.}.C.P.L.` N.T.P.U.}.+XMXgXgXnXgXu.u.1X&X2XhX>X%X;XsX7X5X%XE.(.Y.}.OX'.",
"s 3 , r Y ) 7.2.1.2.t ! ~ E.T.G.F.q q H.U.OXXX/ N.N./ ( '.$XN.Z.@XE.K.K.N.( S. X0XdX$XsXNXSXaX X'.0.7.0.&X4XsXaX,X&X2Xy.(.}.T.P.",
"f 3 > 2 B V =.:.=.=.<.).:XT.I.K.H.Z.S.#X X&X>X(.R D.! B.}.R.G.N.K.H.K.R.C.B.L.7X5XXXmX6X9XsX%X;XOX@X@X.X&X6XfXt.9.9.q.1X+X&XI.K.",
"f 3 > 3 B V -.>.-.>.-.G W q 9 q T.I.}.}.|.! ! E.J.C.J.E.%XY.D.C.G.I.E.}.L.@X&XdX9X+X0X;XsX6X4X4XmX9X4X4X;XsX9XfX,X,X1X4X%X5X{.I."
};
