/* XPM */
static char *result[] = {
/* columns rows colors chars-per-pixel */
"32 32 159 2 ",
"   c #000100",
".  c #090111",
"X  c #19021B",
"o  c #280229",
"O  c #390239",
"+  c #262B3B",
"@  c #312B3D",
"#  c #32323B",
"$  c #39343D",
"%  c #491C00",
"&  c #542D00",
"*  c #563100",
"=  c #6B3800",
"-  c #45013E",
";  c #613C27",
":  c #684200",
">  c #714203",
",  c #7D4C00",
"<  c #774A2A",
"1  c #3C174D",
"2  c #280A51",
"3  c #310054",
"4  c #3A0053",
"5  c #33185C",
"6  c #192659",
"7  c #38364A",
"8  c #362652",
"9  c #3C275A",
"0  c #3B2858",
"q  c #2D345B",
"w  c #323F51",
"e  c #391B65",
"r  c #430242",
"t  c #4C0247",
"y  c #4E014A",
"u  c #52014E",
"i  c #41005E",
"p  c #560352",
"a  c #59025A",
"s  c #403C49",
"d  c #6F3C4C",
"f  c #733F4B",
"g  c #420060",
"h  c #580162",
"j  c #4A0072",
"k  c #670363",
"l  c #6E0169",
"z  c #75026D",
"x  c #780474",
"c  c #7C0479",
"v  c #432F63",
"b  c #443164",
"n  c #364251",
"m  c #3A415B",
"M  c #7A444B",
"N  c #4A4D61",
"B  c #82047F",
"V  c #93554F",
"C  c #6F018C",
"Z  c #670098",
"A  c #750195",
"S  c #6D00A1",
"D  c #7D00B5",
"F  c #5869E4",
"G  c #5C6DEC",
"H  c #5F6EF4",
"J  c #606FF3",
"K  c #6675F4",
"L  c #6876F4",
"P  c #6D7BF4",
"I  c #8B0384",
"U  c #8A01AB",
"Y  c #8401B2",
"T  c #8D01B4",
"R  c #8300BB",
"E  c #B406B0",
"W  c #8700C1",
"Q  c #8B02C4",
"!  c #8F00CD",
"~  c #9501C5",
"^  c #9901C4",
"/  c #9A01CD",
"(  c #9400D2",
")  c #9902D5",
"_  c #9D00DD",
"`  c #A401D5",
"'  c #A201D8",
"]  c #A202E2",
"[  c #A901E2",
"{  c #A601EB",
"}  c #AA00ED",
"|  c #B301EF",
" . c #AD02F2",
".. c #AC0AF1",
"X. c #AF02F8",
"o. c #B201F5",
"O. c #B708F5",
"+. c #B403FC",
"@. c #BA03FD",
"#. c #B60BFC",
"$. c #BA0DFF",
"%. c #B411F7",
"&. c #B614FB",
"*. c #BC13FF",
"=. c #BC1BFD",
"-. c #BC2AF7",
";. c #BD23FC",
":. c #CB07C4",
">. c #D907D6",
",. c #DD07DB",
"<. c #DF08DD",
"1. c #E208DE",
"2. c #DE07E3",
"3. c #DE12E0",
"4. c #C51BFE",
"5. c #E407E5",
"6. c #E509E2",
"7. c #E809E6",
"8. c #E712E6",
"9. c #E816E8",
"0. c #C22CFF",
"q. c #C13AF7",
"w. c #C331FF",
"e. c #CA36FE",
"r. c #C53CFF",
"t. c #CA3BFE",
"y. c #E529E9",
"u. c #E639E4",
"i. c #C744FF",
"p. c #CA45FF",
"a. c #CA4AFF",
"s. c #D04DFC",
"d. c #CD56FF",
"f. c #CE5CFE",
"g. c #E741E4",
"h. c #CE6AFA",
"j. c #D065FF",
"k. c #D46BFF",
"l. c #D073F6",
"z. c #D673FF",
"x. c #D77BFF",
"c. c #DB7FFD",
"v. c #9CA7EA",
"b. c #9FA8ED",
"n. c #A2ACF2",
"m. c #A4AEF9",
"M. c #A7B1F9",
"N. c #A9B3FA",
"B. c #DC85FE",
"V. c #DC8BFF",
"C. c #DF95FE",
"Z. c #E095FF",
"A. c #E39BFF",
"S. c #E6ACFF",
"D. c #EBB4FF",
"F. c #BDC5F4",
"G. c #BFC8FB",
"H. c #C2CAFB",
"J. c #EDC1FF",
/* pixels */
"M.M.H.H.H.H.H.H.H.H.H.H.H.F.H.F.F.F.F.H.H.H.H.H.H.H.H.H.H.H.N.M.",
"M.N.H.H.H.H.H.H.H.H.H.H.F.N # s 7 $ N F.H.H.H.H.H.H.H.H.H.H.M.m.",
"H.H.N.N.N.N.N.N.N.N.N.N.n.+ % > & = @ n.N.N.N.N.N.N.N.M.N.m.P L ",
"H.H.N.M.M.M.M.M.M.M.M.M.n.7 > ; < * 7 n.M.M.N.M.M.M.M.M.N.m.K H ",
"H.H.N.M.N.M.M.M.M.M.M.M.v.+ * , : , # v.n.M.N.M.M.N.M.M.N.m.L J ",
"H.H.N.M.M.M.M.N.M.m.v.m 0 1 M d V f 1 9 m v.n.M.M.M.M.M.N.m.K H ",
"H.H.N.M.M.M.M.M.v.m 8 4 { X.%.%.;.-.=.} i 8 m b.N.M.M.N.N.m.L H ",
"H.H.N.M.M.N.N.b.n 4  .+.*.$.$.@.=.0.t.0.&.} 4 w v.N.M.M.N.m.K H ",
"H.H.N.M.M.M.b.n 4 ..+.@.$.=.0.=.0.d.c.j.w.*...4 n v.N.N.N.m.L J ",
"H.H.N.M.M.m.m 4 ..@.+.+.$.=.0.e.a.x.B.B.j.0.4...4 m m.M.m.m.K J ",
"H.H.N.M.N.v.8 } +.} {  .+.$.;.p.a.z.x.Z.k.j.r.=.} 8 v.M.N.m.K J ",
"H.H.N.M.M.m 4 +.+.) ` 2.@.@.$.0.a.d.d.s.y.c.V.p.=.i m n.N.m.K H ",
"H.H.N.M.v.8 } +.X./ ,.z 5.@.=.0.p.r.e.6.l u.A.f.0.{ 8 v.M.m.L H ",
"H.H.N.n.m i X.@.X.~ ,.x 5.@.=.0.a.a.r.9.z g.D.k.p.=.i m n.M.L H ",
"H.H.N.n.0 } #.+.+.( ~ 2.| +.=.0.p.a.d.t.y.c.S.V.d.w.| 9 n.m.K H ",
"H.H.N.b.b [ .. .+._ Q ~ _ +.+.$.0.a.d.a.a.x.V.D.B.p.o.b n.m.K H ",
"H.H.N.b.b ] ] ] } +._ ( R ( [ +.=.r.d.d.p.d.k.Z.C.d.O.b n.m.L H ",
"H.G.N.n.b ] ) ( _ +. ._ D R  . .&.d.i.d.d.a.p.k.S.B.q.v n.M.K H ",
"H.H.N.n.b { ] / ( { +.[ D Z Z ( { =.0.a.d.a.r.p.C.D.l.b n.M.L H ",
"H.H.N.n.b  .} ( ) [ o.` Y C A Y ' o.4.0.p.p.t.t.x.J.h.v n.m.K H ",
"H.H.N.n.b o.+.] 7.7.7.5.6.1.6.6.7.6.6.7.8.8.6.9.r.a.q.b n.M.K H ",
"H.H.N.n.0 { #.o.7.:.a p x k B x u - u c u y I 8.$.@.} 0 b.M.K H ",
"H.G.N.n.m i +.+.` 1.E a r r O O o . X .   l 3.e.=.O.i m n.M.K H ",
"H.H.N.N.v.8 { +.! U ,.k   . X o X o     I 6.4.=.#. .8 v.M.m.K H ",
"H.H.M.N.n.m g ..) S A >.c y u p t t r c >.^ X.@.+.i m m.M.m.L J ",
"H.H.N.M.N.v.8 } ..( W T <.6.1.2.6.1.6.,.U D +.+.} 8 v.M.M.M.K J ",
"H.H.N.M.N.m.m 4 ..+.{ W A a h A / / Y Y W ] @...4 m m.M.M.m.L H ",
"H.H.N.N.M.N.v.w 4 ..@.] R 4 3 j R ! ! _ { @. .4 w v.M.M.M.m.L J ",
"H.H.M.M.M.M.N.b.n 4 } { ] Q Q Q ( ) _ ] { { 4 n b.N.M.M.M.m.K H ",
"H.H.M.m.m.m.m.N.v.q 2 i }  .] ) ) ] o.{ i 2 q v.M.m.m.m.m.m.P K ",
"N.M.P K L K K L L J F 6 5 e 5 5 5 5 e 5 6 F J L L K K K K P n.m.",
"M.m.K H J H H H H J K G G G G G G G G G H J K H H H H H H K m.M."
};
