/* XPM */
static char *result[] = {
/* columns rows colors chars-per-pixel */
"32 32 161 2 ",
"   c #020100",
".  c #090600",
"X  c #0D0A00",
"o  c #00000D",
"O  c #0B000E",
"+  c #110E00",
"@  c #151200",
"#  c #1A1700",
"$  c #1E1A00",
"%  c #211D00",
"&  c #252200",
"*  c #2A2500",
"=  c #2D2900",
"-  c #28210E",
";  c #322C00",
":  c #3B3400",
">  c #322E1A",
",  c #433B00",
"<  c #493F00",
"1  c #4B3E0D",
"2  c #474001",
"3  c #4D4400",
"4  c #504601",
"5  c #564C00",
"6  c #584E00",
"7  c #565300",
"8  c #5D5300",
"9  c #615600",
"0  c #655B00",
"q  c #6A5E00",
"w  c #665B0F",
"e  c #636000",
"r  c #6F6300",
"t  c #736701",
"y  c #756900",
"u  c #7B6D00",
"i  c #7D7100",
"p  c #7C6D11",
"a  c #5F593A",
"s  c #827400",
"d  c #867801",
"f  c #8C7D00",
"g  c #83740C",
"h  c #8E7E0C",
"j  c #7A815F",
"k  c #8A8000",
"l  c #948600",
"z  c #9C8B00",
"x  c #96850B",
"c  c #9B8B0E",
"v  c #A29201",
"b  c #AC9C01",
"n  c #A4920F",
"m  c #AB9A0E",
"M  c #B29F00",
"N  c #A18D10",
"B  c #B09D11",
"V  c #ADA100",
"C  c #B3A301",
"Z  c #BBA700",
"A  c #BDAB00",
"S  c #BBA609",
"D  c #B5A111",
"F  c #BAA414",
"G  c #BAAA11",
"H  c #888E3A",
"J  c #91853A",
"K  c #AA9C3A",
"L  c #BAAB3A",
"P  c #ACB43D",
"I  c #C5AE00",
"U  c #C4B301",
"Y  c #CAB500",
"T  c #CDBB00",
"R  c #C9B60C",
"E  c #D2BD00",
"W  c #C5B53A",
"Q  c #C4C800",
"!  c #D6C400",
"~  c #DAC401",
"^  c #DDCA00",
"/  c #D6C20A",
"(  c #DBC809",
")  c #D1D600",
"_  c #DBC718",
"`  c #E5CE00",
"'  c #E6D100",
"]  c #EAD602",
"[  c #ECD800",
"{  c #F2DC00",
"}  c #F4DC0F",
"|  c #E5CF11",
" . c #EDD712",
".. c #F7E500",
"X. c #FAE503",
"o. c #FEEC01",
"O. c #F9E60E",
"+. c #F6E011",
"@. c #FAE312",
"#. c #FFE913",
"$. c #F9E418",
"%. c #CACF3D",
"&. c #CFD63D",
"*. c #D5D93A",
"=. c #E5D339",
"-. c #FDEB24",
";. c #FBE72B",
":. c #FDED3B",
">. c #81885F",
",. c #93995E",
"<. c #9DA55C",
"1. c #B3BA49",
"2. c #A4AC5E",
"3. c #B7BF5F",
"4. c #BCC348",
"5. c #BFC75F",
"6. c #BEC561",
"7. c #CFD948",
"8. c #D6DF47",
"9. c #C7CB5E",
"0. c #CAD35E",
"q. c #D5D95F",
"w. c #DBE646",
"e. c #DBE35D",
"r. c #F8E642",
"t. c #FAE944",
"y. c #FFED49",
"u. c #EAF44E",
"i. c #F2FA44",
"p. c #F5F949",
"a. c #F6F851",
"s. c #F1F65F",
"d. c #F7F95B",
"f. c #EEF462",
"g. c #EDF56B",
"h. c #F3F664",
"j. c #F5F962",
"k. c #F5FA68",
"l. c #F0F572",
"z. c #5F6EF4",
"x. c #606FF4",
"c. c #6776F4",
"v. c #6876F4",
"b. c #6D7BF4",
"n. c #F3F684",
"m. c #A3ADEB",
"M. c #A6B0EC",
"N. c #ABB4EC",
"B. c #AFB8EB",
"V. c #B0B7EB",
"C. c #B3BCEC",
"Z. c #A5AFF3",
"A. c #A3ADF9",
"S. c #A6B1F3",
"D. c #ABB5F3",
"F. c #AEB8F3",
"G. c #A7B1F9",
"H. c #A9B3F9",
"J. c #B0BAF2",
"K. c #BFC8FB",
"L. c #C2CAFB",
/* pixels */
"G.H.L.L.L.L.L.L.L.L.L.L.L.L.L.L.L.L.L.L.L.L.L.L.L.L.L.L.L.L.H.H.",
"H.H.L.L.L.L.L.L.L.L.L.L.L.L.L.L.L.L.L.L.L.L.L.L.L.L.L.L.L.K.G.A.",
"L.L.H.H.H.H.H.H.H.H.H.H.H.H.H.G.G.H.H.H.H.H.H.H.H.G.H.H.H.Z.b.c.",
"L.L.H.G.H.A.H.A.A.H.H.G.A.S.S.S.H.D.S.H.G.G.G.G.G.G.G.G.G.A.c.z.",
"L.L.H.H.H.H.Z.H.H.A.A.D.V.6.7.1.4.%.9.M.H.H.G.H.G.G.G.G.G.A.v.c.",
"L.L.H.G.G.G.G.G.H.D.C.h.t.=.;...^ E Z K 2.m.S.G.G.G.H.G.H.A.c.z.",
"L.L.H.H.G.G.G.A.C.s.r.X.` _ _ | m n g b i J 3.N.G.G.G.G.G.A.c.z.",
"L.L.H.A.G.H.A.C.e.! A m N A E ` C l q N x C E 9.N.G.G.G.G.A.c.z.",
"L.L.H.A.G.G.C.e.V D c y : : 4 s f l v T Z G D A 5.M.G.G.G.A.c.z.",
"L.L.H.H.G.D.e.Y B v r , : 9 s b Y b Z E } @.@.$.~ 3.S.G.G.Z.c.x.",
"L.L.H.G.G.N.W z w : & $ # $ : 8 q < < 8 z A ~ #.{ L M.G.G.A.c.z.",
"L.L.H.A.D.q.E p #                     $ < q E { $.M 9.G.G.G.c.z.",
"L.L.H.A.C.=.] g   @ +               . +   & f Y +.C W B.H.A.c.z.",
"L.L.A.F.s.X./ y @ , : = .           % : * @ < u Y S ] f.F.A.c.z.",
"L.L.H.F.:.o. .k $ = # * X $         # 0 t $   $ 0 h T p.F.A.c.z.",
"L.L.H.F.p.o.#.v %         @         . 5 u 5 @   & 1 k u.F.A.c.z.",
"L.L.G.F.i.o.;.R ;   .               $ t s V 4 5 * O e w.F.A.c.z.",
"L.L.G.D.8.X.y. .2   @ o #           * s i ! i f ; o 7 7.F.A.c.z.",
"L.L.H.S.P ! :.$.t   $ > t &         * f q v 0 8 $ o 7 &.D.A.c.z.",
"L.L.H.S.,.b $.@.U 9 3 , y 3 * .     . % % 6 0 :   o 7 3.D.A.v.z.",
"L.L.H.H.m.,.b / ! z v 6 3 $ .             u Z 8 - = H m.H.A.c.z.",
"L.L.H.A.H.m.a i m U ] A i .   .   X   $ 3 d U d x 0 j Z.G.A.c.z.",
"L.L.H.H.G.G.>.e p b ` X.Y 7       X   9 I ~ ~ n V H m.G.G.G.c.x.",
"L.L.H.G.G.G.M.2.l N C X.[ ! 8 ; .     : q f x F Q <.G.G.H.A.c.z.",
"L.L.H.G.H.G.A.N.0.Z m ( ] -.( A 0 2 : r x S V ) <.M.G.G.H.A.c.z.",
"L.L.H.G.G.G.H.G.C.f.^ ' @.:.-.O.R ( R G A T *.0.M.G.G.H.H.G.c.z.",
"L.L.H.G.G.H.H.G.G.J.l.a.-.#.o.o.{ o.o.:.h.g.C.S.G.G.G.G.H.A.c.z.",
"L.L.H.A.G.G.G.G.G.G.D.C.n.k.j.d.j.j.i.g.C.D.G.G.G.G.G.G.G.A.c.x.",
"L.L.H.A.H.H.G.H.G.G.G.G.F.D.F.F.F.F.F.F.G.G.G.G.H.G.D.G.H.A.c.z.",
"L.L.G.A.Z.A.A.A.A.A.G.A.A.A.A.A.A.A.A.A.A.G.A.A.A.A.A.A.G.A.v.c.",
"H.G.b.c.v.c.c.c.c.v.c.c.v.v.c.v.c.c.c.c.c.c.c.c.c.c.c.c.c.v.A.A.",
"G.Z.c.z.x.z.z.x.z.z.z.z.z.z.z.z.z.z.z.z.z.z.x.z.z.x.z.z.z.c.A.G."
};
