/* XPM */
static char *result[] = {
/* columns rows colors chars-per-pixel */
"32 32 156 2 ",
"   c #000300",
".  c #060010",
"X  c #1B002B",
"o  c #220032",
"O  c #2A003D",
"+  c #3B073C",
"@  c #322B3D",
"#  c #2F323D",
"$  c #432610",
"%  c #623E00",
"&  c #47363F",
"*  c #40383D",
"=  c #6A401A",
"-  c #7D4C1A",
";  c #2E0044",
":  c #34024C",
">  c #370050",
",  c #3B0054",
"<  c #3E005A",
"1  c #2E2D43",
"2  c #30264A",
"3  c #33334B",
"4  c #352551",
"5  c #392A53",
"6  c #3B2B5A",
"7  c #393255",
"8  c #333F52",
"9  c #333F59",
"0  c #400054",
"q  c #43005F",
"w  c #48005F",
"e  c #48175C",
"r  c #4B195D",
"t  c #592B4F",
"y  c #473842",
"u  c #403649",
"i  c #412C5C",
"p  c #450063",
"a  c #480065",
"s  c #4F1365",
"d  c #4F0472",
"f  c #530077",
"g  c #58027E",
"h  c #463265",
"j  c #3A415C",
"k  c #3E4160",
"l  c #4E4363",
"z  c #524965",
"x  c #8C5201",
"c  c #8C5411",
"v  c #A86514",
"b  c #B06B19",
"n  c #8B5628",
"m  c #925829",
"M  c #B56F30",
"N  c #C27C1D",
"B  c #5D0285",
"V  c #5F1682",
"C  c #63008D",
"Z  c #67088E",
"A  c #670492",
"S  c #680097",
"D  c #6D009B",
"F  c #6E0B9B",
"G  c #70009F",
"H  c #700D9C",
"J  c #7401A3",
"K  c #7A02AD",
"L  c #780CA9",
"P  c #7D00B1",
"I  c #5F6EF4",
"U  c #606FF4",
"Y  c #6775F4",
"T  c #6876F4",
"R  c #6B79F5",
"E  c #8100B6",
"W  c #8401BA",
"Q  c #8801BF",
"!  c #8A02C3",
"~  c #8B09C4",
"^  c #8F05C9",
"/  c #9202CD",
"(  c #8C14C2",
")  c #951BCD",
"_  c #9500D3",
"`  c #9905D6",
"'  c #9E01DD",
"]  c #9C0AD9",
"[  c #A114DF",
"{  c #9525CA",
"}  c #A301E3",
"|  c #A008E1",
" . c #A601E9",
".. c #A900ED",
"X. c #AA0AEB",
"o. c #B00AEF",
"O. c #AA1AEA",
"+. c #AD09F1",
"@. c #B003F7",
"#. c #B209F7",
"$. c #B302FA",
"%. c #B709FE",
"&. c #BA0DFE",
"*. c #B310F3",
"=. c #B714FA",
"-. c #BA12FF",
";. c #BC1CFE",
":. c #B82BEF",
">. c #B621F8",
",. c #BE24FE",
"<. c #BD2AFB",
"1. c #B932F1",
"2. c #BF35F8",
"3. c #C22CFF",
"4. c #C435FF",
"5. c #C63CFF",
"6. c #BE42EF",
"7. c #B751F1",
"8. c #C14FEF",
"9. c #C542FC",
"0. c #C946FF",
"q. c #C54CFD",
"w. c #CA4BFF",
"e. c #C750F7",
"r. c #C755FE",
"t. c #CC54FE",
"y. c #CC5BFE",
"u. c #CA62FD",
"i. c #CF69FB",
"p. c #D165FE",
"a. c #D46CFF",
"s. c #D276FB",
"d. c #D57CFA",
"f. c #9DA7EB",
"g. c #9EA8EC",
"h. c #9CA7F0",
"j. c #9EA9F1",
"k. c #A3ADF2",
"l. c #A4AEF9",
"z. c #A7B1F9",
"x. c #A9B3FA",
"c. c #DA82FF",
"v. c #DD8CFF",
"b. c #DE91FF",
"n. c #E193FF",
"m. c #E29DFF",
"M. c #E1AFF5",
"N. c #E7AEFF",
"B. c #E7BFF7",
"V. c #E8B5FE",
"C. c #BFC8FB",
"Z. c #C2CAF2",
"A. c #C2CAFB",
"S. c #E4D9EC",
"D. c #EDC7FE",
"F. c #F1D3FE",
/* pixels */
"z.z.A.A.A.A.A.A.A.A.A.A.A.A.A.A.A.A.A.A.A.A.A.A.A.A.A.A.A.A.x.x.",
"z.x.A.A.A.A.A.A.A.A.A.A.A.A.A.A.A.A.A.A.A.A.A.A.A.A.A.C.A.C.z.l.",
"A.A.x.x.x.z.x.x.x.x.x.x.x.z.k.k.k.k.z.x.x.x.x.x.x.x.x.x.x.z.R Y ",
"A.A.x.z.z.z.z.z.z.z.z.x.k.9 @ u y & h k.z.z.z.z.z.z.z.z.z.l.Y I ",
"A.A.x.z.z.z.z.x.z.z.z.x.z.@ x x b N y j.x.z.z.x.z.z.x.z.z.l.T Y ",
"A.Z.x.z.z.z.z.z.z.z.x.x.f.* v n M c # f.x.z.z.z.x.z.z.z.x.l.Y I ",
"A.A.x.z.z.z.z.z.x.z.k.f.9 + m = $ - + 8 f.l.z.z.z.z.z.z.z.l.Y I ",
"A.A.x.z.z.z.x.z.x.g.j 5 a X.t %   e 6.s 4 j g.x.z.z.z.z.z.l.Y I ",
"A.A.x.z.z.z.z.x.j.8 , ..&.;.Z e e { d.p.:., 8 g.x.x.z.z.x.z.Y I ",
"A.A.x.z.z.z.z.g.8 , X.%.&.;.3.9.2.p.v.n.a.1.< 8 f.z.z.z.x.l.Y I ",
"A.A.x.z.z.x.z.9 > | @...$.&.,.0.t.v.n.m.c.a.1.0 j k.z.z.x.l.Y I ",
"A.A.x.z.z.x.f.5 ..` _ @._ $.%.3.t.v.q.a.t.v.N.6.4 f.z.z.z.l.T I ",
"A.A.x.z.z.k.j q @.! W #. .$.;.3.0.0.0.;...q.F.s.w j k.x.z.l.Y I ",
"A.A.x.z.x.f.4 ..#.W E Q K $.;.3.0.0.5.;.4.u.D.c.6.5 f.z.x.z.Y I ",
"A.A.z.x.k.j < @.$./ E G } &.;.3.0.w.y.5.7.S.V.n.i.r j l.x.l.Y U ",
"A.A.z.x.k.5 ^ ` } ' ! K W ..;.-.3.0.y.q.b.F.N.V.v.8.i g.x.l.Y I ",
"A.A.x.z.k.7 D ~ ' ..' ! S !  .%.;.5.t.t.t.s.V.n.n.e.h k.x.l.T U ",
"A.A.x.x.j.7 ! ~ E '  .! J G ..+.&.-.5.t.t.t.y.D.m.d.z Z.x.z.T U ",
"A.A.z.x.k.6 _ _ G ! _ _ K d G / ..;.5.w.t.p.4.r.V.M.l k.z.l.Y U ",
"A.A.z.z.k.h  .` ! J ! E D a K P [ #.;.3.w.y.5.&.n.B.z g.x.l.Y U ",
"A.A.z.z.g.6 ..] D a < C d J =.=.q.;.4.,.q.t.0.,.a.8.i j.x.l.T U ",
"A.A.x.x.l.j < / D D , o < B +.-.3.;.4.<.( O.:.O.>.w 9 l.x.l.Y U ",
"A.A.x.z.x.f.4 ' ~ D C ; X , p ) y.5.<.1.` _ ) y.o.4 f.x.z.l.T I ",
"A.A.x.z.z.k.j , ^ S A B ; >   < ) e.s.{ *.#.;.<.q j k.x.z.l.Y U ",
"A.A.x.z.z.x.f.2 ! K C K D : o > < V { ] D P %...4 f.x.z.z.l.T U ",
"A.A.x.z.z.z.k.j O ~ ~ K K C f J g S P 1.L W X.< j k.x.z.z.l.T U ",
"A.A.z.z.z.x.z.g.8 : ' W B : : d A L F H W / : 8 g.z.z.z.z.l.T I ",
"A.A.x.z.z.z.z.x.g.9 6 7 . ; : , < J P X 7 6 j g.x.z.z.z.z.l.T I ",
"A.A.z.z.x.z.z.x.x.l.l.f.k 1 3 3 3 7 5 k f.l.k.z.x.x.x.x.x.l.Y I ",
"A.A.z.l.z.l.l.l.l.x.l.l.j.j.j.j.j.j.h.h.l.l.l.l.l.l.l.l.z.l.T Y ",
"x.z.R Y T Y R T Y Y Y Y R R R T T Y Y I Y Y Y T T T Y T Y R j.l.",
"z.l.Y I U I U I I I I I I I I I I I I I I I I I I I I I I Y l.x."
};
