/* XPM */
static char *result[] = {
/* columns rows colors chars-per-pixel */
"32 32 232 2 ",
"   c black",
".  c #001616",
"X  c #011818",
"o  c #001819",
"O  c #0F1818",
"+  c #101818",
"@  c #370000",
"#  c #380000",
"$  c #221919",
"%  c #251818",
"&  c #281919",
"*  c #2F2323",
"=  c #2F2424",
"-  c #312323",
";  c #302424",
":  c #471A1A",
">  c #481919",
",  c #5B1515",
"<  c #5C1515",
"1  c #571919",
"2  c #571F20",
"3  c #652626",
"4  c #BB0000",
"5  c #BB0008",
"6  c #BA040C",
"7  c #BD1B1E",
"8  c #BD1B1F",
"9  c #BE1B1E",
"0  c #BF1B1E",
"q  c #BE1B1F",
"w  c #BD1C1F",
"e  c #BF2527",
"r  c #BA2528",
"t  c #BA2629",
"y  c #C10005",
"u  c #C10006",
"i  c #C3191C",
"p  c #C21A1C",
"a  c #C31A1D",
"s  c #C21B1F",
"d  c #EF0006",
"f  c #F30000",
"g  c #F40000",
"h  c #F50000",
"j  c #F40100",
"k  c #F50100",
"l  c #F70000",
"z  c #F50400",
"x  c #F60700",
"c  c #F40006",
"v  c #F80000",
"b  c #F80100",
"n  c #FA0000",
"m  c #FB0000",
"M  c #F80200",
"N  c #FC0000",
"B  c #FC0100",
"V  c #F80400",
"C  c #F70900",
"Z  c #F70F00",
"A  c #F80D00",
"S  c #FB0C00",
"D  c #FB0F00",
"F  c #F81001",
"G  c #FC1206",
"H  c #F40811",
"J  c #F40911",
"K  c #F1171A",
"L  c #F11A1D",
"P  c #FD1F23",
"I  c #C02629",
"U  c #C4253A",
"Y  c #C4263A",
"T  c #C4273A",
"R  c #C0273D",
"E  c #C12D3E",
"W  c #F62D3E",
"Q  c #F72D3E",
"!  c #BF2E46",
"~  c #BF2F48",
"^  c #C03346",
"/  c #C03448",
"(  c #BD405F",
")  c #BD415F",
"_  c #BE405F",
"`  c #BE415F",
"'  c #BF445F",
"]  c #826565",
"[  c #836565",
"{  c #816666",
"}  c #826666",
"|  c #876666",
" . c #876767",
".. c #8C6767",
"X. c #8E6666",
"o. c #816A6A",
"O. c #826A6A",
"+. c #836A6A",
"@. c #866A6A",
"#. c #856C6C",
"$. c #866C6C",
"%. c #876C6C",
"&. c #876D6D",
"*. c #8A6969",
"=. c #8B6969",
"-. c #8B6A69",
";. c #896B6B",
":. c #8B6A6A",
">. c #8C6969",
",. c #896C6C",
"<. c #886D6D",
"1. c #896D6D",
"2. c #8A6C6C",
"3. c #8A6D6D",
"4. c #8B6D6D",
"5. c #906666",
"6. c #946565",
"7. c #956666",
"8. c #956767",
"9. c #916B6B",
"0. c #946A6A",
"q. c #946B6B",
"w. c #926C6C",
"e. c #9D6969",
"r. c #C2405D",
"t. c #C3405D",
"y. c #EE4243",
"u. c #EE4343",
"i. c #F74546",
"p. c #F74A4B",
"a. c #F74C4D",
"s. c #F74C4E",
"d. c #F74D4E",
"f. c #F8494A",
"g. c #F24F50",
"h. c #F94F59",
"j. c #F95059",
"k. c #F9515D",
"l. c #F85362",
"z. c #F85463",
"x. c #F35B70",
"c. c #F45B70",
"v. c #F35C72",
"b. c #F35D73",
"n. c #F35E73",
"m. c #F45C72",
"M. c #F45C73",
"N. c #F45D73",
"B. c #F35E74",
"V. c #F35F74",
"C. c #F45E74",
"Z. c #5F6EF3",
"A. c #5D6DF4",
"S. c #5F6EF4",
"D. c #606FF4",
"F. c #6674F4",
"G. c #6776F4",
"H. c #6875F4",
"J. c #6876F4",
"K. c #6778F6",
"L. c #6C7AF4",
"P. c #6D7BF4",
"I. c #A8A7EB",
"U. c #A9A7EB",
"Y. c #A9A7EC",
"T. c #A7A8EC",
"R. c #AAA8EB",
"E. c #AEA8EC",
"W. c #AFA8EC",
"Q. c #B3A7EC",
"!. c #B3A8EC",
"~. c #B3A9ED",
"^. c #B4A8EC",
"/. c #B4A9EC",
"(. c #A4A8F1",
"). c #A4A8F2",
"_. c #A4A9F2",
"`. c #A5ADF4",
"'. c #A6ADF4",
"]. c #A7AEF4",
"[. c #A8ADF2",
"{. c #AFAFF3",
"}. c #ABAEF4",
"|. c #ACAEF4",
" X c #ACAEF5",
".X c #ADAEF5",
"XX c #A0ABF8",
"oX c #A3ADF9",
"OX c #A3AFFA",
"+X c #A4ADF8",
"@X c #A4AEF9",
"#X c #A4AFFA",
"$X c #A4AFFB",
"%X c #B0AFF2",
"&X c #B0AFF3",
"*X c #A7B0F8",
"=X c #A6B0F9",
"-X c #A7B0F9",
";X c #A7B1F9",
":X c #A5B1FA",
">X c #A6B1FA",
",X c #A7B1FA",
"<X c #A4B2FB",
"1X c #A4B3FB",
"2X c #A6B2FA",
"3X c #A7B3FA",
"4X c #A6B2FB",
"5X c #A7B2FB",
"6X c #A6B3FB",
"7X c #A7B4FB",
"8X c #A6B3FC",
"9X c #A8B1F8",
"0X c #A8B1F9",
"qX c #A8B2F9",
"wX c #A9B2F9",
"eX c #A9B3F9",
"rX c #A8B2FA",
"tX c #A8B3FA",
"yX c #A8B3FB",
"uX c #AAB4F9",
"iX c #ABB4F9",
"pX c #A8B4FA",
"aX c #BFC8FB",
"sX c #C1C9FA",
"dX c #C0C8FB",
"fX c #C1C9FB",
"gX c #C2C9FA",
"hX c #C2CAFB",
"jX c #C3CBFB",
"kX c #C4CBFB",
"lX c #C4CCFB",
"zX c #C0CAFC",
/* pixels */
"=XqXhXlXjXjXjXjXjXjXjXjXkXkXkXkXkXkXkXjXjXjXjXjXjXjXjXjXlXhXuX;X",
"qXiXdXhXfXfXfXfXfXfXgXgXzXzXzXzXzXzXzXgXgXfXfXfXfXfXfXfXhXaX=XoX",
"hXdXiXqXeXeXeXeXwXeX7X3X{.%X&X&X&X%X{.3X7XwXwXeXeXeXeXeXuX=XP.F.",
"lXhXqX=X;X=X=X-X<X:X}.!.b.k.z.l.z.k.N.!.}.,X4X-X=X=X=X=X;XoXF.A.",
"jXfXeX;X;X;X;X>X X/.V.j.D v v v v n F j.C.E.`.rX;X;X;X;XqX@XJ.D.",
"jXfXeX=X;X9X1X~.n.h.S v L s 7 0 0 w p h x Y ` Y.8X*X;X;XqX@XG.S.",
"jXfXeX=X;X1X~.c.m b K I 7.-.=.=.>.*.5.r u k g r.T.8X;X;XqX@XG.S.",
"jXfXeX-X>X~.c.B c 9 6.:.$.<.<.<.<.<.3.[ 2 y.P f t.Y.,X-XqX@XG.S.",
"jXfXwX<X Xn.m H 4 : O.3.,.,.,.,.,.;.3.@.X < u.P f ` '.5X0X@XG.S.",
"jXfXwX:X/.h.v 5 @ + ] 4.,.,.,.,.,.,.4.} %   , y.A T U.,X0X@XG.S.",
"jXgX7X}.B.G d 1 o   ; } 3.,.,.,.,.3.} =   & . 3 i.z ) '.yX+XG.S.",
"jXsX3X!.j.h e  .{ -   ; } 3.,.,.3.} ;   = } +...g.V Y I.tX+XG.S.",
"kXzX{.N.Z a X.3.4.} ;   ; } 3.3.} ;   ; } 4.3.1.e.p.j _ [.OXH.S.",
"kXzX%Xk.v 8 =.<.;.3.} ;   * } } *   ; } 3.,.,.#.9.d.v R [.$XH.S.",
"kXzX&Xz.v 0 =.<.,.,.3.} *   $ $   * } 3.,.,.2.$.0.a.l ~ [.$XH.S.",
"kXzX&Xl.v 9 =.<.,.,.,.3.} $     $ } 3.,.,.,.2.$.q.s.v ! [.$XH.S.",
"kXzX&Xl.v 9 =.<.,.,.,.3.} $     $ } 3.,.,.,.2.$.q.s.v ! [.$XH.S.",
"kXzX&Xz.v 0 =.<.,.,.3.} *   $ $   * } 3.,.,.2.$.0.a.l ~ [.$XH.S.",
"kXzX%Xk.v w *.<.;.3.} ;   * } } *   ; } 3.,.,.#.9.d.v R [.$XH.S.",
"kXzX{.M.l i 5.3.4.} ;   ; } 3.3.} ;   ; } 4.3.1.e.p.j _ [.OXH.S.",
"jXsXpXQ.Q g t | { -   ; } 3.,.,.3.} ;   = } +...g.V Y I.tX+XG.S.",
"jXgX7X}.m.M y > O   ; } 3.,.,.,.,.3.} =   & . 3 i.z ) '.yX+XG.S.",
"jXfXwX:X^.W g 6 # + } 4.,.,.,.,.,.,.4.} &   , y.A T U.,X0X@XG.S.",
"jXfXwX<X|.v.N J 4 : o.&.,.2.2.2.2.,.3.+.. , u.P f ` '.5X0X@XG.S.",
"jXfXeX-X>X~.x.B c q 8.w.%.#.$.$.$.#.1...3 y.P f t.Y.,X-XqX@XG.S.",
"jXfXeX=X;X1X~.c.m A f.g.e.9.0.q.0.9.e.g.i.A f t.T.8X;X;XqX@XG.S.",
"jXfXeX=X;X9X1X~.n.h.C l p.d.a.a.a.d.p.V z T ` Y.8X*X;X;XqX@XG.S.",
"jXfXeX=X;X;X;X>X.XW.) U g v l l l v g U ( U.'.,X;X;X;X=XqXoXJ.D.",
"lXhXuX;XqXqXqXqX6X2X].R.' E / ^ / E ' R.].rXyXqXqXqXqXqXeX@XF.A.",
"hXaX=XoX@X@X@X@X+X+X#XOX_.(.).(.).(._.#X#X+X+X@X@X@X@XoX@XXXL.F.",
"uX=XP.F.J.G.G.G.G.G.H.H.K.K.K.K.K.K.K.H.H.G.G.G.G.G.G.J.F.L.XX@X",
";XoXF.A.D.S.S.S.S.S.S.S.Z.Z.Z.Z.Z.Z.Z.S.S.S.S.S.S.S.S.D.A.F.@XeX"
};
