/* XPM */
static char *result[] = {
/* columns rows colors chars-per-pixel */
"32 32 123 2 ",
"   c #F50000",
".  c #FB0101",
"X  c #FC0F00",
"o  c #F60008",
"O  c #FB001D",
"+  c #CA3C0B",
"@  c #C83C11",
"#  c #F53C14",
"$  c #FB0021",
"%  c #C42A3B",
"&  c #C1313E",
"*  c #F93E26",
"=  c #F72F3F",
"-  c #F7303E",
";  c #C64800",
":  c #C6490E",
">  c #C94613",
",  c #C64810",
"<  c #CA4910",
"1  c #F64613",
"2  c #C86214",
"3  c #CD611E",
"4  c #C64924",
"5  c #E25F33",
"6  c #CD6025",
"7  c #DE6324",
"8  c #E26237",
"9  c #ED6035",
"0  c #F96039",
"q  c #C03246",
"w  c #C13648",
"e  c #BE435F",
"r  c #BE4360",
"t  c #C3415D",
"y  c #FC5B47",
"u  c #FC5C4A",
"i  c #F9525B",
"p  c #FC6344",
"a  c #FC6549",
"s  c #FB7246",
"d  c #FC744B",
"f  c #FC665C",
"g  c #FC6B59",
"h  c #FC7D5A",
"j  c #F85663",
"k  c #F45D72",
"l  c #FC7866",
"z  c #FD7968",
"x  c #F46074",
"c  c #F4F13E",
"v  c #FC8671",
"b  c #F7F142",
"n  c #FBF346",
"m  c #FBF24C",
"M  c #F7FA4D",
"N  c #F8F949",
"B  c #F5F454",
"V  c #F8FA50",
"C  c #FBF25C",
"Z  c #F7F85C",
"A  c #FBFC64",
"S  c #F6F16B",
"D  c #FBF36F",
"F  c #FBFB6A",
"G  c #F5F273",
"H  c #FBFB73",
"J  c #F5F27E",
"K  c #FBF37D",
"L  c #F7F97E",
"P  c #FBF97C",
"I  c #5F6EF4",
"U  c #606FF4",
"Y  c #6675F4",
"T  c #6875F4",
"R  c #6778F6",
"E  c #6D7BF4",
"W  c #FBFD85",
"Q  c #F7F58B",
"!  c #FAF18A",
"~  c #F7F889",
"^  c #FCFD8A",
"/  c #F0F595",
"(  c #FBFB95",
")  c #FBF29A",
"_  c #FCFF9F",
"`  c #EAEEA2",
"'  c #FDFFA3",
"]  c #FCFEAA",
"[  c #FDFFB2",
"{  c #FDFFBE",
"}  c #A9A7EC",
"|  c #AAA8EC",
" . c #B3A7EC",
".. c #B3A9EC",
"X. c #B6BFEE",
"o. c #A5ABF3",
"O. c #ABAEF3",
"+. c #A4AEF9",
"@. c #B0AFF3",
"#. c #ADB6F4",
"$. c #AFB8F3",
"%. c #A6B1FA",
"&. c #A9B3F9",
"*. c #B1BAF2",
"=. c #BDC5E7",
"-. c #B7C0EE",
";. c #BAC2EC",
":. c #B7C0F1",
">. c #BFC8FB",
",. c #EBEFC4",
"<. c #ECF0C1",
"1. c #FDFFC6",
"2. c #FDFECE",
"3. c #FEFED7",
"4. c #FEFFDA",
"5. c #C3CBE2",
"6. c #C8CFF7",
"7. c #C2CAFB",
"8. c #C8D0F4",
"9. c #FEFFE5",
"0. c #FEFFEB",
"q. c #FFFFF5",
"w. c #FFFFFE",
/* pixels */
"%.&.7.7.7.7.7.7.7.7.7.7.7.7.7.7.7.7.7.7.7.7.7.7.7.7.7.7.7.7.&.&.",
"&.&.>.7.7.6.7.7.>.7.7.7.7.7.>.7.7.7.7.7.7.>.7.7.7.8.>.7.7.7.+.+.",
"7.>.&.*.*.` X.&.&.&.&.%.@.@.@.@.@.@.@.&.&.&.&.&.:.<.:.&.&.%.E Y ",
"7.7.-.,.#.=.,.#.%.%.O...x i j j j i x ..O.%.%.#.` 5.` #.%.o.Y I ",
"7.6.<.-.#.` X.%.O...x i .         . o i x | o.%.X.,.X.#.%.+.Y U ",
"7.7.-.` *.#.%...x i . . 1 < ; ; ; : >     % e } %.#.#.` -.+.T I ",
"7.7.&.$.&.+...k .   # 3 b M B Z Z N c 2 @     t | %.&.;.,.&.Y I ",
"7.7.&.+.%. .k X   3 b V A ' 1.q.9.[ ^ M b d $   t o.*.,.=.+.Y I ",
"7.7.&.%.O.k .   7 G ^ ( ] 9.w.w.w.w.q.[ H m s $   r o.:.<.&.Y I ",
"7.7.&.%...i . 9 Q [ q.w.q.w.w.w.w.w.w.q.1.A n d . % } %.$.+.T I ",
"7.7.&.O.k . * ! ] 2.w.w.w.w.w.w.w.w.w.w.q.' A m u   e o.%.+.T I ",
"7.7.&...i   8 ] 3.q.w.w.w.w.w.w.w.w.w.w.w.q.' A h   % } %.+.T I ",
"7.7.#.k o > G 4.q.w.w.w.w.w.w.w.w.q.w.w.w.w.4.~ D g   r O.+.T I ",
"7.7.@.i   , ~ q.w.w.w.w.w.w.w.w.w.w.w.w.w.w.q.[ W z   % o.%.T I ",
"7.7.@.j   : Q w.w.w.w.w.w.w.w.w.w.w.w.w.w.w.w.9.( l   q o.%.T I ",
"7.7.@.j   : ~ q.w.w.w.w.w.w.w.w.w.w.w.w.w.w.w.9.( l   q O.+.T I ",
"7.7.@.j   , ~ q.w.w.w.w.w.w.w.w.w.w.w.w.w.w.w.q.~ g   q o.%.Y I ",
"7.7.@.j   4 Q 2.w.w.w.w.w.w.w.w.w.w.w.w.w.w.w.q.W a   q o.%.T I ",
"7.7.@.i   4 L [ q.w.w.w.w.w.w.w.w.w.w.w.w.w.w.9.F p . % O.+.T I ",
"7.7.O.k . 4 S ^ 2.w.w.w.w.w.w.w.w.w.w.w.w.w.q.1.S p   e o.+.T I ",
"7.7.&...-   7 H 1.4.0.w.w.w.w.w.w.w.w.w.w.q.' F d   % | &.+.Y U ",
"7.7.&.#.k   + B ' 3.q.w.w.w.w.w.w.w.w.w.w.4.F m u   e o.&.+.Y I ",
"7.7.&.%. .=   6 J { 4.w.w.w.w.w.w.w.w.w.2._ C s   % | &.&.+.R I ",
"7.7.&.+.O.k .   5 ) 1.9.w.q.w.w.w.w.q.4.' K d O   r o.+.&.%.Y I ",
"7.7.&.$.+.@.k X   0 ) 2.0.9.q.q.q.q.[ L C d O   t | &.$.%.+.Y I ",
"7.>.$.` X.%. .k . . f v K P H F A Z m d u     e | %.*.<.:.+.T I ",
"7.7.&.=.,.$.+...k i     y a p p p p p     % e | %.&.<.=.` #.Y I ",
"7.7.$.` X.+.%.&.#.| e %               % e | o.&.$.$.$.%.#.+.Y I ",
"7.7.&.#.&.%.&.%.&.%.o.| e & w q w % e | o.&.&.#./ / #.+.&.+.T I ",
"7.7.+.+.+.+.o.%.+.o.%.+.o.o.o.o.o.o.o.%.+.+.+.+.#.#.+.+.+.+.T Y ",
"&.+.E Y T Y T T Y Y Y Y Y Y R R R R R T T Y T T Y U T T T E +.+.",
"&.+.Y I U U I U I U U I I U I I I I I I I I U I U U I I I T +.+."
};
