/* XPM */
static char *result[] = {
/* columns rows colors chars-per-pixel */
"32 32 23 1 ",
"  c #5D6DF4",
". c #5F6EF4",
"X c #606FF4",
"o c #6674F4",
"O c #6776F4",
"+ c #6876F4",
"@ c #6C7AF4",
"# c #6D7BF4",
"$ c #A0ABF8",
"% c #A3ADF9",
"& c #A4AEF9",
"* c #A6B0F9",
"= c #A7B1F9",
"- c #A8B2F9",
"; c #A9B3F9",
": c #AAB4F9",
"> c #ABB4F9",
", c #BFC8FB",
"< c #C0C8FB",
"1 c #C1C9FB",
"2 c #C2CAFB",
"3 c #C3CBFB",
"4 c #C4CCFB",
/* pixels */
"*-2433333333333333333333333342:=",
"-><21111111111111111111111112,*%",
"2<>-;;;;;;;;;;;;;;;;;;;;;;;;:*#o",
"42-*=***********************=%o ",
"31;=========================-&+X",
"31;*========================-&O.",
"31;*========================-&O.",
"31;*========================-&O.",
"31;*========================-&O.",
"31;*========================-&O.",
"31;*========================-&O.",
"31;*========================-&O.",
"31;*========================-&O.",
"31;*========================-&O.",
"31;*========================-&O.",
"31;*========================-&O.",
"31;*========================-&O.",
"31;*========================-&O.",
"31;*========================-&O.",
"31;*========================-&O.",
"31;*========================-&O.",
"31;*========================-&O.",
"31;*========================-&O.",
"31;*========================-&O.",
"31;*========================-&O.",
"31;*========================-&O.",
"31;*========================-&O.",
"31;*=======================*-%+X",
"42:=------------------------;&o ",
"2,*%&&&&&&&&&&&&&&&&&&&&&&&%&$@o",
":*#o+OOOOOOOOOOOOOOOOOOOOOO+o@$&",
"=%o X......................X o&;"
};
