/* XPM */
static char *result[] = {
/* columns rows colors chars-per-pixel */
"32 32 188 2 ",
"   c black",
".  c #30221E",
"X  c #181F32",
"o  c #1F2239",
"O  c #282320",
"+  c #2D2B25",
"@  c #312320",
"#  c #312D2A",
"$  c #202131",
"%  c #262537",
"&  c #272637",
"*  c #242D30",
"=  c #373C3C",
"-  c #4D0909",
";  c #431B00",
":  c #461F00",
">  c #472100",
",  c #532B00",
"<  c #542D00",
"1  c #573100",
"2  c #5D3914",
"3  c #412920",
"4  c #402F24",
"5  c #493939",
"6  c #553838",
"7  c #49423E",
"8  c #2E2D40",
"9  c #3A3140",
"0  c #373842",
"q  c #3D3F51",
"w  c #4D3D4A",
"e  c #4C3D4D",
"r  c #3C4052",
"t  c #3E4254",
"y  c #3F415E",
"u  c #3A4160",
"i  c #3F4362",
"p  c #544546",
"a  c #504844",
"s  c #504945",
"d  c #49455E",
"f  c #4E465C",
"g  c #4C4D5A",
"h  c #504356",
"j  c #555555",
"k  c #5E575F",
"l  c #555858",
"z  c #674B4B",
"x  c #6C4B4B",
"c  c #6E5050",
"v  c #404462",
"b  c #424766",
"n  c #4E4A64",
"m  c #4B4E68",
"M  c #4E526E",
"N  c #5B526D",
"B  c #5C5C68",
"V  c #585B70",
"C  c #5B5E72",
"Z  c #5C5E72",
"A  c #565A7B",
"S  c #6B6262",
"D  c #60606B",
"F  c #64646C",
"G  c #8D4D00",
"H  c #945400",
"J  c #955700",
"K  c #955800",
"L  c #975A0C",
"P  c #9F5F12",
"I  c #9D5F14",
"U  c #595E81",
"Y  c #5D6DF4",
"T  c #5F6EF4",
"R  c #606FF4",
"E  c #6674F4",
"W  c #6776F4",
"Q  c #6876F4",
"!  c #6C7AF4",
"~  c #6D7BF4",
"^  c #AFAFAE",
"/  c #B0AFAD",
"(  c #AFB0B0",
")  c #B2B1B1",
"_  c #B1B2B2",
"`  c #B4B4B4",
"'  c #B5B5B4",
"]  c #B6B6B4",
"[  c #B6B6B6",
"{  c #B7B7B6",
"}  c #BCBBB9",
"|  c #BBBCBC",
" . c #BEBEBD",
".. c #BFBEBD",
"X. c #DA9A9A",
"o. c #E39F9E",
"O. c #E5A0A0",
"+. c #EAA4A2",
"@. c #EBA5A3",
"#. c #EAA5A5",
"$. c #EBA6A6",
"%. c #EDA6A6",
"&. c #ECA7A7",
"*. c #F4ADAD",
"=. c #ECB1B1",
"-. c #F2B5B5",
";. c #C0C0BE",
":. c #959EE0",
">. c #97A0E2",
",. c #9AA2E5",
"<. c #9BA5E9",
"1. c #9AA4EA",
"2. c #9BA5EA",
"3. c #9CA6EB",
"4. c #9DA6EB",
"5. c #9DA7EB",
"6. c #9DA6EC",
"7. c #9CA7EC",
"8. c #9DA7EC",
"9. c #9EA8EC",
"0. c #9FAAF1",
"q. c #A0AAF1",
"w. c #A2ABF1",
"e. c #A0ABF2",
"r. c #A1ABF2",
"t. c #A2ACF1",
"y. c #A1ACF2",
"u. c #A2ACF2",
"i. c #A3ACF2",
"p. c #A3ACF3",
"a. c #A3ADF3",
"s. c #A4AEF4",
"d. c #A0ABF8",
"f. c #A3ADF9",
"g. c #A4AEF9",
"h. c #A6B0F8",
"j. c #A7B1F8",
"k. c #A6B0F9",
"l. c #A7B1F9",
"z. c #A7B1FA",
"x. c #A8B2F9",
"c. c #A9B3F9",
"v. c #A8B2FA",
"b. c #A8B2FB",
"n. c #A9B2FB",
"m. c #A8B3FB",
"M. c #A9B3FB",
"N. c #AAB4F9",
"B. c #ABB4F9",
"V. c #A9B3FC",
"C. c #ABB5FE",
"Z. c #BFC8FB",
"A. c #C1C0C1",
"S. c #C3C2C1",
"D. c gray76",
"F. c #C2C3C3",
"G. c #C3C3C3",
"H. c #C3C3C4",
"J. c #C3C4C4",
"K. c #C8C8C7",
"L. c #C7C8C8",
"P. c #C7C9C8",
"I. c #C8C9C8",
"U. c #C0C8FB",
"Y. c #C1C9FB",
"T. c #C2CAFB",
"R. c #C3CBFB",
"E. c #C4CCFB",
"W. c #F3F3F3",
"Q. c #F5F5F4",
"!. c gray96",
"~. c #F5F6F6",
"^. c #F8F6F6",
"/. c #F9F6F6",
"(. c #F8F8F8",
"). c #F8F9F9",
"_. c #F9F9F9",
"`. c gray98",
"'. c #FBFBFB",
"]. c #FCF9F9",
"[. c #FEFBFB",
"{. c #FBFBFC",
"}. c #FDFDFD",
"|. c #FFFCFC",
" X c #FFFDFD",
".X c #FEFEFE",
"XX c #FEFEFF",
"oX c white",
/* pixels */
"k.x.T.E.R.R.R.R.R.R.R.R.R.R.R.R.R.R.R.R.R.R.R.R.R.R.R.R.E.T.N.l.",
"x.B.U.T.Y.Y.Y.Y.Y.Y.Y.Y.Y.Y.Y.Y.Y.Y.Y.Y.Y.Y.Y.Y.Y.Y.Y.Y.T.Z.k.f.",
"T.U.B.x.c.c.c.c.c.c.c.c.c.c.c.c.c.c.c.c.c.c.c.c.c.c.c.c.N.k.~ E ",
"E.T.x.k.l.k.k.k.k.k.k.k.k.k.k.k.k.k.k.k.k.k.k.k.k.k.k.k.l.f.E Y ",
"R.Y.c.l.l.l.l.l.l.l.l.l.l.l.l.l.l.l.l.l.l.l.l.l.l.l.l.l.x.g.Q R ",
"R.Y.c.k.l.l.l.l.b.b.n.b.l.l.l.l.l.l.l.b.n.b.b.l.l.l.l.l.x.g.W T ",
"R.Y.c.k.l.l.l.v.y.u.r.u.v.l.b.l.b.l.v.u.r.u.y.v.l.l.l.l.x.g.W T ",
"R.Y.c.k.l.l.V.9.d 8 9 y 8.M.u.l.u.M.8.y 9 8 d 9.V.l.l.l.x.g.W T ",
"R.Y.c.k.l.v.7.f H < J : n >.U :.U >.n : J < H f 7.v.l.l.x.g.W T ",
"R.Y.c.h.b.i.u > P 2 I 1 G k ( F ( k G 1 I 2 P > u i.b.h.x.g.W T ",
"R.Y.c.h.b.t.X ; L < K 4 7 ..!.K.!...7 4 K , L ; X t.b.h.x.g.W T ",
"R.Y.c.h.b.u.i & . O a [ F._.oX}.oX_.F.[ s # @ % i u.b.h.x.g.W T ",
"R.Y.c.k.l.h.s.3.t ' J.`.oXoXoXoXoXoXoX'.H.^ r 6.s.h.l.l.x.g.W T ",
"R.Y.c.k.l.l.C.1.B Q.oX(._..XoXoXoX.X_._.{.S.g 3.C.l.l.l.x.g.W T ",
"R.Y.c.k.l.v.<.C  .oX/.l j (.oX.XoX(.j l /.'. .Z <.v.l.l.x.g.W T ",
"R.Y.c.h.m.u.A / ~.|.=.- l (.oX.XoX(.l - =. X~./ A u.b.k.x.g.W T ",
"R.Y.c.k.l.z.>.D I.].-.=.^.oX}.oX}.oX^.=.-.].P.D >.z.l.l.x.g.W T ",
"R.Y.c.h.M.r.M ' (.oX[.|.oX(.L.W.L.(.oX|.[.oX(.' M r.m.h.x.g.W T ",
"R.Y.c.h.M.q.0 ;.XXoXoX).G.` S ) S ` G.).oXoXXX;.0 q.M.h.x.g.W T ",
"R.Y.c.h.M.r.m ] `.oX}.D.= z X.c X.z = D.}.oX`.] m r.m.h.x.g.W T ",
"R.Y.c.k.l.v.5.V } '.'.| 5 O.$.6 $.O.5 | '.'.} V 5.v.l.l.x.g.W T ",
"R.Y.c.k.l.l.V.2.V { A._ p %.#.x #.%.p _ A.{ V 2.V.l.l.l.x.g.W T ",
"R.Y.c.k.l.l.j.V.4.q + * 3 $.*.&.*.$.3 * + q 4.V.j.l.l.l.x.g.W T ",
"R.Y.c.k.l.l.h.b.a.o     e o.@.+.@.o.e     o a.b.h.l.l.l.x.g.W T ",
"R.Y.c.k.l.l.l.b.u.v $ b ,.N w h w N ,.b $ v u.b.l.l.l.l.x.g.W T ",
"R.Y.c.k.l.l.l.l.j.u.w.p.z.e.0.0.0.e.z.p.w.u.j.l.l.l.l.l.x.g.W T ",
"R.Y.c.k.l.l.l.l.l.b.b.b.l.n.M.M.M.n.l.b.b.b.l.l.l.l.l.l.x.g.W T ",
"R.Y.c.k.l.l.l.l.l.k.h.k.l.k.h.h.h.k.l.k.h.k.l.l.l.l.l.k.x.f.Q R ",
"E.T.N.l.x.x.x.x.x.x.x.x.x.x.x.x.x.x.x.x.x.x.x.x.x.x.x.x.c.g.E Y ",
"T.Z.k.f.g.g.g.g.g.g.g.g.g.g.g.g.g.g.g.g.g.g.g.g.g.g.g.f.g.d.! E ",
"N.k.~ E Q W W W W W W W W W W W W W W W W W W W W W W Q E ! d.g.",
"l.f.E Y R T T T T T T T T T T T T T T T T T T T T T T R Y E g.c."
};
