/* XPM */
static char *result[] = {
/* columns rows colors chars-per-pixel */
"32 32 52 1 ",
"  c #5E6DF4",
". c #5E6EF4",
"X c #5F6EF4",
"o c #606FF4",
"O c #6170F4",
"+ c #6270F4",
"@ c #6271F4",
"# c #6573F4",
"$ c #6574F4",
"% c #6775F4",
"& c #6A78F4",
"* c #6B79F4",
"= c #6C7AF4",
"- c #6D7AF4",
"; c #6D7BF5",
": c #6E7CF5",
"> c #6F7CF5",
", c #7683F5",
"< c #7783F5",
"1 c #7884F5",
"2 c #7885F5",
"3 c #7A86F5",
"4 c #99A3F8",
"5 c #99A4F8",
"6 c #A0AAF8",
"7 c #A2ACF8",
"8 c #A3ADF8",
"9 c #A5AFF9",
"0 c #A6B0F9",
"q c #A7B1F9",
"w c #A8B2F9",
"e c #AAB4F9",
"r c #ABB4F9",
"t c #ABB5F9",
"y c #ACB5F9",
"u c #ACB6F9",
"i c #ADB6F9",
"p c #AEB8F9",
"a c #AFB8F9",
"s c #BCC4FA",
"d c #BCC5FA",
"f c #BDC5FA",
"g c #BDC6FA",
"h c #BDC6FB",
"j c #BFC7FB",
"k c #BFC8FB",
"l c #C0C8FB",
"z c #C1C9FB",
"x c #C2CAFB",
"c c #C2CBFB",
"v c #C3CBFB",
"b c #C4CCFB",
/* pixels */
"0tkbvvvvvvvvvvvvvvvvvvvvvvvvvl9q",
"tdajbvvvvvvvvvvvvvvvvvvvvvvvz8,6",
"kasajbvvvvvvvvvvvvvvvvvvvvvz8,5;",
"bjasajbvvvvvvvvvvvvvvvvvvvz8,5> ",
"vbjasajbvvvvvvvvvvvvvvvvvz8,5> O",
"vvbjasajbvvvvvvvvvvvvvvvz8,5> OO",
"vvvbjasajbvvvvvvvvvvvvvz8,5> OOO",
"vvvvbjasajbvvvvvvvvvvvz8,5> OOOO",
"vvvvvbjasajbvvvvvvvvvz8,5> OOOOO",
"vvvvvvbjasajbvvvvvvvz8,5> OOOOOO",
"vvvvvvvbjasajbvvvvbz8,5> OOOOOOO",
"vvvvvvvvbjasajzzzzl8,5> OOOOOOOO",
"vvvvvvvvvbjadietryq<4> OOOOOOOOO",
"vvvvvvvvvvbjijzzzzl7-.OOOOOOOOOO",
"vvvvvvvvvvvzezbvvbv0#o+OOOOOOOOO",
"vvvvvvvvvvvztzvvvvx9%oOOOOOOOOOO",
"vvvvvvvvvvvztzvvvvx9%oOOOOOOOOOO",
"vvvvvvvvvvvzezbvvvx0#o+OOOOOOOOO",
"vvvvvvvvvvbjulcxxxz7=.OOOOOOOOOO",
"vvvvvvvvvbjpgw9090724> OOOOOOOOO",
"vvvvvvvvbjph9*$%%#-434: OOOOOOOO",
"vvvvvvvbjph9&.oooo.>434: OOOOOOO",
"vvvvvvbjph9&X@+OO+O :434: OOOOOO",
"vvvvvbjph9&X+OOOOOOO :434: OOOOO",
"vvvvbjph9&X+OOOOOOOOO :434: OOOO",
"vvvbjph9&X+OOOOOOOOOOO :434: OOO",
"vvbjph9&X+OOOOOOOOOOOOO :434: OO",
"vbjph9&X+OOOOOOOOOOOOOOO :434: O",
"bjph9&X+OOOOOOOOOOOOOOOOO :434>.",
"kph9&X+OOOOOOOOOOOOOOOOOOO :434;",
"rf9&X+OOOOOOOOOOOOOOOOOOOOO >416",
"q0=.@OOOOOOOOOOOOOOOOOOOOOOO ;6w"
};
