/* XPM */
static char *result[] = {
/* columns rows colors chars-per-pixel */
"64 64 7 1 ",
"  c #432D05",
". c #0C5517",
"X c #11640A",
"o c #F30909",
"O c #0B9300",
"+ c #F3F209",
"@ c #096095",
/* pixels */
"OOOOOOOOOOOOOOOOOOOOOOOOOOOOOOOOOO            OOOOOOOOOOOOOOOOOO",
"OOOOOOOOOOOOOOOOOOOOOOOOOOOOOOOOOO            OOOOOOOOOOOOOOOOOO",
"OOOOOOOOOOOOOOOOOOOOOOOOOOOOOOOOOOOO            OOOOOOOOOOOOOOOO",
"OOOOOOOOOOOOOOOOOOOOOOOOOOOOOOOOOOOO            OOOOOOOOOOOOOOOO",
"OOOOOOOOOOOOOOOOOOOOOOOOOOOOOOOOOOOO            OOOOOOOOOOOOOOOO",
"OOOOOOOOOOOOOOOOOOOOOOOOOOOOOOOOOOOO            OOOOOOOOOOOOOOOO",
"OOOOOOOOOOOOOOOOOOOOOOOOOOOOOOOOOOOO              OOOOOOOOOOOOOO",
"OOOOOOOOOOOOOOOOOOOOOOOOOOOOOOOOOOOO              OOOOOOOOOOOOOO",
"OOOOOOOOOOOOOOOOOOOOOOOOOOOOOOOOOOOOOOOO              OOOOOOOOOO",
"OOOOOOOOOOOOOOOOOOOOOOOOOOOOOOOOOOOOOOOO              OOOOOOOOOO",
"OOOOOOOOOOOOOOooooooOOOOOOOOOOOOOOOOOOOO              OOOOOOOOOO",
"OOOOOOOOOOOOOOooooooOOOOOOOOOOOOOOOOOOOO              OOOOOOOOOO",
"OOOOOOOOOOOOOOoo++ooOOOOOOOOOOOOOOOOOOOOOO              OOOOOOOO",
"OOOOOOOOOOOOOOoo++ooOOOOOOOOOOOOOOOOOOOOOO              OOOOOOOO",
"OOOOOOOOOOOOOOooooooOOOOOOOOOOOOOOOOOOOOOOOO              OOOOOO",
"OOOOOOOOOOOOOOooooooOOOOOOOOOOOOOOOOOOOOOOOO              OOOOOO",
"OOOOOOOOOO....OO..OOOO....OOOOOOOOOOOOOOOOOOOO                OO",
"OOOOOOOOOO....OO..OOOO....OOOOOOOOOOOOOOOOOOOO                OO",
"OOOOOOOOOOOO......OO....OOOOOOOOOOOOOOOOOOOOOOOO                ",
"OOOOOOOOOOOO......OO....OOOOOOOOOOOOOOOOOOOOOOOO                ",
"OOOOOOOOOOOOOOOO......OOOOOOOOOOOOOOOOOOOOOOOOOOOO              ",
"OOOOOOOOOOOOOOOO......OOOOOOOOOOOOOOOOOOOOOOOOOOOO              ",
"OOOOOOooOOOOOOOO....OOOOOOOOOOOOOOOOOOOOOOOOOOOOOO              ",
"OOOOOOooOOOOOOOO....OOOOOOOOOOOOOOOOOOOOOOOOOOOOOO              ",
"OOOOOOOOOOOOOOOO..OOOOOOOOOOOOOOOOOOOOOOOOOOOOOOOOOOOO          ",
"OOOOOOOOOOOOOOOO..OOOOOOOOOOOOOOOOOOOOOOOOOOOOOOOOOOOO          ",
"OOOOOOOOOOOOOOOOOOOOOOOOOOooOOOOOOOOOOOOOOOOOOOOOOOOOOOO        ",
"OOOOOOOOOOOOOOOOOOOOOOOOOOooOOOOOOOOOOOOOOOOOOOOOOOOOOOO        ",
"OOOOOOOOOOooOOOOOOOOOOOOOOOOOOOOOOOOOOOOOOOOOOOOOOOOOOOOOO      ",
"OOOOOOOOOOooOOOOOOOOOOOOOOOOOOOOOOOOOOOOOOOOOOOOOOOOOOOOOO      ",
"OOOOOOOOOOOOOOOOOOOOOOOOOOOOOOOOOOOOOOOOOOOOOOOOOOOOOOOOOOOO    ",
"OOOOOOOOOOOOOOOOOOOOOOOOOOOOOOOOOOOOOOOOOOOOOOOOOOOOOOOOOOOO    ",
"  OOOOOOOOOOOOOOOOOOOOooOOOOOOOOOO....OOOOOOOOOOOOOOOOOOOOOOOOOO",
"  OOOOOOOOOOOOOOOOOOOOooOOOOOOOOOO....OOOOOOOOOOOOOOOOOOOOOOOOOO",
"        OOOOooOOOOOOOOOOOOOOOOOOOO......OOOO....OOOOOOOOOOOOOOOO",
"        OOOOooOOOOOOOOOOOOOOOOOOOO......OOOO....OOOOOOOOOOOOOOOO",
"        OOOOOOOOOOOOOOOOOOOOOOOOOO++....OOOO..++OOOOOOOOOOOOOOOO",
"        OOOOOOOOOOOOOOOOOOOOOOOOOO++....OOOO..++OOOOOOOOOOOOOOOO",
"        OOOO@@OOOOOOOOOOOOOOOOOOOO++OO..OO....++OOOOOOOOOOOOOOOO",
"        OOOO@@OOOOOOOOOOOOOOOOOOOO++OO..OO....++OOOOOOOOOOOOOOOO",
"          OOOO@@OOOOOOOOOOOOOOOOOOOOOO..OO....OOOOOOOOOOOOOOOOOO",
"          OOOO@@OOOOOOOOOOOOOOOOOOOOOO..OO....OOOOOOOOOOOOOOOOOO",
"  XXXXXX      OOOOOOOOOOOOOOOOOOOOOOOO......OOOOOOOOOOOOOOOOOOOO",
"  XXXXXX      OOOOOOOOOOOOOOOOOOOOOOOO......OOOOOOOOOOOOOOOOOOOO",
"@@@@@@XX        XXXXXXXXOOOOOOOOOOOOOO....OOOOOOOOOOOOOOOOOOOOOO",
"@@@@@@XX        XXXXXXXXOOOOOOOOOOOOOO....OOOOOOOOOOOOOOOOOOOOOO",
"  @@  XXXX      XXOO@@@@@@OOOOOOOOOOOO....OOOOOOOO++++OOOOOOOOOO",
"  @@  XXXX      XXOO@@@@@@OOOOOOOOOOOO....OOOOOOOO++++OOOOOOOOOO",
"        XXXXXX  XX  OO@@OOOOOOOO++OOOOOOOOOOOOOOOOOOOOOOOOOOOOOO",
"        XXXXXX  XX  OO@@OOOOOOOO++OOOOOOOOOOOOOOOOOOOOOOOOOOOOOO",
"OO          XX  XX    OOOOOOOOOOOO++OOOOOOOOOOOOOOOOOOOOOOOOOOOO",
"OO          XX  XX    OOOOOOOOOOOO++OOOOOOOOOOOOOOOOOOOOOOOOOOOO",
"OOOO        XXXXXX    OOOOOOOOOOOOOOOOOOOOOOOOOOOOOOOOOOOOOOOOOO",
"OOOO        XXXXXX    OOOOOOOOOOOOOOOOOOOOOOOOOOOOOOOOOOOOOOOOOO",
"OOOOOO      XXXX          OOOOOOOOOOOOOOOOOOOOOOOOOOOOOOOOOOOOOO",
"OOOOOO      XXXX          OOOOOOOOOOOOOOOOOOOOOOOOOOOOOOOOOOOOOO",
"OOOOOOOO                  OOOOOOOOOOOOOOOOOOOO++OOOOOOOOOOOOOOOO",
"OOOOOOOO                  OOOOOOOOOOOOOOOOOOOO++OOOOOOOOOOOOOOOO",
"OO@@OOOOOO          @@@@    OOOOOOOOOOOOOOOO++OOOOOOOOOOOOOOOOOO",
"OO@@OOOOOO          @@@@    OOOOOOOOOOOOOOOO++OOOOOOOOOOOOOOOOOO",
"OOOO@@OOOO          @@        OOOOOOOOOOOOOOOOOOOOOOOOOOOOOOOOOO",
"OOOO@@OOOO          @@        OOOOOOOOOOOOOOOOOOOOOOOOOOOOOOOOOO",
"OOOOOOOOOOOO                    OOOOOOOOOOOOOOOOOOOOOOOOOOOOOOOO",
"OOOOOOOOOOOO                    OOOOOOOOOOOOOOOOOOOOOOOOOOOOOOOO"
};
